<?xml version="1.0" encoding="utf-8"?>
<!-- Generator: Adobe Illustrator 22.0.0, SVG Export Plug-In . SVG Version: 6.00 Build 0)  -->
<svg version="1.1" id="Layer_1" xmlns="http://www.w3.org/2000/svg" xmlns:xlink="http://www.w3.org/1999/xlink" x="0px" y="0px"
	 viewBox="0 0 612.8 612.8" style="enable-background:new 0 0 612.8 612.8;" xml:space="preserve">
<style type="text/css">
	.st0{fill:#666666;}
	.st1{fill:#FFD5C6;}
	.st2{fill:#E9BEB1;}
	.st3{fill:#C39F96;}
	.st4{fill:#DEFFEC;}
</style>
<g>
	<circle class="st0" cx="306.4" cy="306.1" r="250.1"/>
	<g>
		<path d="M390.4,336.1V148.5c0-14.3-4.8-27.4-13-37.8V45.1l-22,48c-8-3.8-17-6-26.4-6h-45c-10.6,0-20.5,2.7-29.2,7.4l-21.3-46.4
			v65.4c-6.9,9.9-11,22-11,35.1v187.5H155v137l151.5,94l151.5-94v-137L390.4,336.1L390.4,336.1z"/>
		<path d="M306.4,255.1v73c-11.4-1-22.5-6-30.9-15l-15.8-16.8L242,233.1h33.1L306.4,255.1z"/>
		<path class="st1" d="M306.4,255.1v73c-11.4-1-22.5-6-30.9-15l-15.8-16.8L242,233.1h33.1L306.4,255.1z"/>
		<path class="st2" d="M306.4,254.8l-0.1,73c-11.4-1-22.4-6-30.9-15L259.6,296L242,232.8h33.1L306.4,254.8z"/>
		<path class="st1" d="M306.4,254.8l0.1,73c11.4-1,22.4-6,30.9-15l15.8-16.8l17.6-63.2h-33.1L306.4,254.8z"/>
		<polyline class="st3" points="279.9,278.1 306.9,273.1 328.9,278.1 		"/>
		<path class="st4" d="M285.3,197.1c-2.4,2-11.4,7-17.8,7c-15.9,0-21.6-19-21.6-19L285.3,197.1z"/>
		<path class="st4" d="M325.5,197.1c2.4,2,11.4,7,17.8,7c15.9,0,21.6-19,21.6-19L325.5,197.1z"/>
	</g>
	<path d="M439.1,591.3c0,0.2,0.1,0.4,0.1,0.6l-0.8-0.9L439.1,591.3z"/>
</g>
</svg>
