<?xml version="1.0" encoding="utf-8"?>
<!-- Generator: Adobe Illustrator 21.1.0, SVG Export Plug-In . SVG Version: 6.00 Build 0)  -->
<svg version="1.1" id="Layer_1" xmlns="http://www.w3.org/2000/svg" xmlns:xlink="http://www.w3.org/1999/xlink" x="0px" y="0px"
	 viewBox="0 0 512 239" style="enable-background:new 0 0 512 239;" xml:space="preserve">
<style type="text/css">
	.st0{fill:#FFFFFF;}
</style>
<path class="st0" d="M230,23.6c0,0,0,36-10.3,56.6c-11.5,23-56.6,36-87.5-20.6c0,0-118.4,25.7-97.8,128.7c0,0,41.2-66.9,108.1-10.3
	c0,0,61.8-41.2,108.1,36c0,0,59.8-85,113.8-35.1c0,0,45.8-53.5,107.5,9.3c0,0,19.8-87.4-93.4-128.6c0,0-28,61.8-68.4,33.7
	c-11.3-7.9-18.7-20.3-21.4-33.9l-3.6-35.9C285.1,23.6,256.3,82.6,230,23.6z"/>
</svg>
