<?xml version="1.0" encoding="utf-8"?>
<!-- Generator: Adobe Illustrator 22.0.0, SVG Export Plug-In . SVG Version: 6.00 Build 0)  -->
<svg version="1.1" id="Layer_1" xmlns="http://www.w3.org/2000/svg" xmlns:xlink="http://www.w3.org/1999/xlink" x="0px" y="0px"
	 viewBox="0 0 612.8 612.8" style="enable-background:new 0 0 612.8 612.8;" xml:space="preserve">
<style type="text/css">
	.st0{fill:#607889;}
	.st1{fill:#E9BEB1;}
	.st2{fill:#1A2A30;}
	.st3{fill:#22373F;}
	.st4{fill:#FFD5C6;}
	.st5{fill:#BF272D;}
	.st6{fill:#DEFFEC;}
</style>
<g>
	<circle class="st0" cx="306.4" cy="306.4" r="250.1"/>
	<g>
		<path class="st1" d="M290.3,498.3l-71.6-37.5l0,0l0,0l0,0c-1.5-1.9-3-3.9-4.5-5.9c-0.8-1-1.5-2.1-2.2-3.2
			c-0.3-0.4-0.6-0.9-0.9-1.3c-0.7-1.1-1.4-2.1-2-3.2c-0.2-0.4-0.5-0.8-0.7-1.2c-0.7-1.3-1.4-2.5-2.1-3.8c-0.4-0.8-0.8-1.5-1.2-2.3
			c-0.3-0.7-0.6-1.3-1-2c-0.5-1.1-1-2.2-1.5-3.2c-0.3-0.6-0.6-1.3-0.8-1.9c-0.3-0.7-0.6-1.5-0.9-2.2c-0.1-0.2-0.2-0.4-0.2-0.6
			c-0.2-0.5-0.4-1.1-0.6-1.6c-0.1-0.3-0.2-0.7-0.4-1c-0.2-0.6-0.5-1.3-0.7-1.9s-0.4-1.2-0.6-1.9v-0.1c-0.1-0.4-0.2-0.8-0.3-1.1
			c-0.4-1.4-0.8-2.8-1.2-4.2c-0.1-0.4-0.2-0.7-0.3-1.1s-0.2-0.9-0.3-1.3s-0.2-0.8-0.3-1.2c0-0.1,0-0.2-0.1-0.3
			c-0.2-1-0.4-1.9-0.6-2.9c-0.1-0.3-0.1-0.7-0.2-1c-0.1-0.4-0.1-0.8-0.2-1.2c-0.1-0.3-0.1-0.6-0.2-0.9c-0.1-0.5-0.2-1-0.2-1.4
			c0-0.1,0-0.3-0.1-0.4c-0.1-0.6-0.2-1.2-0.3-1.8c-0.1-0.8-0.2-1.6-0.3-2.4c0-0.2-0.1-0.4-0.1-0.5c-0.1-0.8-0.2-1.6-0.3-2.5
			c1.5,0.1,3,0.1,4.5,0.1c57.5,0,78.1-31.4,78.1-100.3c0-7.1-0.3-14.1-0.9-21c4.9-1.4,9.9-2.5,15-3.2v223.4H290.3z"/>
		<path d="M301.6,136v201.9c-26.2-0.3-54.7-36-64.2-51.8c-3.7-6.2-12.2-43.5-14.5-75.3C255.7,162.6,281.9,142.5,301.6,136z"/>
		<g>
			<path class="st2" d="M393.2,397.5V461l-2.5,1.5l-84.2,52.3l-83.8-52l-4-2.1c0,0,0,0.1,0.1,0.1c0,0,0,0-0.1-0.1l0,0
				c-1.5-1.9-3-3.9-4.5-5.9c-0.8-1-1.5-2.1-2.2-3.2c-0.3-0.5-0.6-0.9-0.9-1.4c-0.7-1.1-1.4-2.1-2-3.2c-0.2-0.4-0.4-0.8-0.7-1.2
				c-0.7-1.3-1.4-2.5-2.1-3.8c-0.4-0.8-0.8-1.5-1.2-2.3c-0.3-0.6-0.6-1.3-0.9-2c-0.5-1.1-1-2.2-1.5-3.2c-0.3-0.6-0.6-1.3-0.8-1.9
				c-0.3-0.7-0.6-1.4-0.9-2.2c-0.1-0.2-0.2-0.4-0.2-0.6c-0.2-0.5-0.4-1.1-0.6-1.6c-0.1-0.3-0.2-0.7-0.4-1c-0.2-0.6-0.5-1.3-0.7-1.9
				s-0.4-1.2-0.6-1.9v-0.1c-0.1-0.4-0.2-0.8-0.3-1.2c-0.4-1.4-0.8-2.8-1.2-4.2c-0.1-0.4-0.2-0.7-0.3-1.1s-0.2-0.8-0.3-1.3
				c-0.1-0.4-0.2-0.8-0.3-1.2c0-0.1,0-0.2-0.1-0.3c-0.2-1-0.4-1.9-0.6-2.9c-0.1-0.3-0.1-0.7-0.2-1c-0.1-0.4-0.1-0.8-0.2-1.2
				c-0.1-0.3-0.1-0.6-0.2-0.9c-0.1-0.5-0.2-1-0.2-1.4c0-0.1-0.1-0.3-0.1-0.4c-0.1-0.6-0.2-1.2-0.3-1.9c-0.1-0.8-0.2-1.6-0.3-2.4
				c0-0.2,0-0.4-0.1-0.5c-0.1-0.8-0.2-1.6-0.3-2.5c1.5,0.1,3,0.1,4.5,0.1c7.9,0,15.1-0.6,21.7-1.8c13.2-2.4,23.8-7.4,32-14.9
				c17.3-15.9,24.4-43.3,24.4-83.6c0-7.1-0.3-14.1-0.9-21c9.8-2.8,20.2-4.3,30.9-4.3h0.5c10.7,0,21.1,1.5,30.9,4.3
				c-0.6,6.9-0.9,13.9-0.9,21c0,40.3,7,67.8,24.4,83.6C369.3,390.2,379.9,395.1,393.2,397.5z"/>
			<path class="st2" d="M419.3,399.2c-1.4,14.9-5.6,28.9-12.1,41.5c-3.7,7.2-8,13.9-13.1,20.1l-3.4,1.8l2.5-1.5v-63.5
				c6.5,1.2,13.7,1.8,21.6,1.8C416.3,399.3,417.8,399.3,419.3,399.2z"/>
		</g>
		<g>
			<path class="st3" d="M290.3,498.3l-71.6-37.5l0,0l0,0l0,0c-1.5-1.9-3-3.9-4.5-5.9c-0.8-1-1.5-2.1-2.2-3.2
				c-0.3-0.4-0.6-0.9-0.9-1.3c-0.7-1.1-1.4-2.1-2-3.2c-0.2-0.4-0.5-0.8-0.7-1.2c-0.7-1.3-1.4-2.5-2.1-3.8c-0.4-0.8-0.8-1.5-1.2-2.3
				c-0.3-0.7-0.6-1.3-1-2c-0.5-1.1-1-2.2-1.5-3.2c-0.3-0.6-0.6-1.3-0.8-1.9c-0.3-0.7-0.6-1.5-0.9-2.2c-0.1-0.2-0.2-0.4-0.2-0.6
				c-0.2-0.5-0.4-1.1-0.6-1.6c-0.1-0.3-0.2-0.7-0.4-1c-0.2-0.6-0.5-1.3-0.7-1.9s-0.4-1.2-0.6-1.9v-0.1c-0.1-0.4-0.2-0.8-0.3-1.1
				c-0.4-1.4-0.8-2.8-1.2-4.2c-0.1-0.4-0.2-0.7-0.3-1.1s-0.2-0.9-0.3-1.3s-0.2-0.8-0.3-1.2c0-0.1,0-0.2-0.1-0.3
				c-0.2-1-0.4-1.9-0.6-2.9c-0.1-0.3-0.1-0.7-0.2-1c-0.1-0.4-0.1-0.8-0.2-1.2c-0.1-0.3-0.1-0.6-0.2-0.9c-0.1-0.5-0.2-1-0.2-1.4
				c0-0.1,0-0.3-0.1-0.4c-0.1-0.6-0.2-1.2-0.3-1.8c-0.1-0.8-0.2-1.6-0.3-2.4c0-0.2-0.1-0.4-0.1-0.5c-0.1-0.8-0.2-1.6-0.3-2.5
				c1.5,0.1,3,0.1,4.5,0.1c57.5,0,78.1-31.4,78.1-100.3c0-7.1-0.3-14.1-0.9-21c4.9-1.4,9.9-2.5,15-3.2v223.4H290.3z"/>
		</g>
		<path class="st4" d="M301.6,136v201.9c-26.2-0.3-54.7-36-64.2-51.8c-3.7-6.2-12.2-43.5-14.5-75.3
			C255.7,162.6,281.9,142.5,301.6,136z"/>
		<path class="st4" d="M381,210.1v7.3c-1.3,14.1-3.7,28.7-6.2,40.9c-2.9,14-5.9,24.8-7.7,27.9c-3.2,5.3-8.6,12.9-15.3,20.7
			c-12.9,14.8-30.7,30.2-47.6,31.1c-0.4,0-0.8,0-1.2,0c-0.3,0-0.6,0-0.9,0c-26.2,0-55-35.9-64.5-51.8c-3.7-6.2-12.2-43.5-14.5-75.3
			C308.6,85.1,349,150.4,349,150.4C358.2,147.9,381,210.1,381,210.1z"/>
		<path class="st1" d="M301.4,135.8V338l0,0c-26.2,0-55.3-36-64.8-51.8c-3.7-6.2-12.2-43.5-14.5-75.3
			C255.2,162.1,281.6,142,301.4,135.8z"/>
		<path class="st2" d="M382.6,209.7c0,6.8-9.1,58.2-9.1,58.2l-61.8,12.2l-19.3-1L230.5,269l-8.3-38.5c-0.1-0.2-0.1-0.4-0.1-0.7
			c-1.1-6.5-1.7-13.2-1.7-20.1c0-54.8,36.3-99.2,81.1-99.2S382.6,155,382.6,209.7z"/>
		<polygon class="st2" points="301.5,286.3 285.9,276.2 303.9,279.2 313.4,279 		"/>
		<path class="st5" d="M303.2,303.4l-27.1-8.6c14.8,17.3,33.3,24.7,51.8,7.4l0,0"/>
		<path class="st6" d="M274.2,243c-12.7,0.8-25.3-3.7-34.4-12.6c-1.4-1.4-2.3-2.4-2.1-2.7c0.2-0.5,1.7-0.5,4-0.2
			c-1.9-1.2-2.9-2.2-2.6-2.6c0.8-1.3,11.5,1.6,23.7,6.5c11.4,4.5,20.7,11,20.7,11C283.5,242.4,279.3,242.7,274.2,243z"/>
		<path class="st6" d="M327.8,243c12.7,0.8,25.3-3.7,34.4-12.6c1.4-1.4,2.3-2.4,2.1-2.7c-0.2-0.5-1.7-0.5-4-0.2
			c1.9-1.2,2.9-2.2,2.6-2.6c-0.8-1.3-11.5,1.6-23.7,6.5c-11.4,4.5-20.7,11-20.7,11C318.5,242.4,322.7,242.7,327.8,243z"/>
		<g>
			<polygon class="st2" points="241.9,98 241.9,161.3 262.7,143.1 			"/>
		</g>
		<g>
			<polygon class="st2" points="361.3,98 361.3,161.3 340.6,143.1 			"/>
		</g>
	</g>
</g>
</svg>
