<?xml version="1.0" encoding="utf-8"?>
<!-- Generator: Adobe Illustrator 21.1.0, SVG Export Plug-In . SVG Version: 6.00 Build 0)  -->
<svg version="1.1" id="Layer_1" xmlns="http://www.w3.org/2000/svg" xmlns:xlink="http://www.w3.org/1999/xlink" x="0px" y="0px"
	 viewBox="0 0 500 689.9" style="enable-background:new 0 0 500 689.9;" xml:space="preserve">
<style type="text/css">
	.st0{fill:#CC1800;}
	.st1{opacity:0.28;fill:#FFFFFF;enable-background:new    ;}
	.st2{fill:#FBFEDF;}
	.st3{fill:#56100C;}
	.st4{fill:#141206;}
	.st5{fill:#13151E;}
	.st6{opacity:0.23;fill:#DEFFEC;enable-background:new    ;}
	.st7{opacity:0.57;fill:#DEFFEC;enable-background:new    ;}
	.st8{opacity:0.92;fill:#DEFFEC;enable-background:new    ;}
	.st9{opacity:0.81;fill:#DEFFEC;enable-background:new    ;}
	.st10{fill:none;stroke:#141206;stroke-width:2;stroke-linecap:round;stroke-miterlimit:10;}
	.st11{fill:#E8CC42;}
	.st12{fill:#EA5353;}
	.st13{fill:#292E3F;}
	.st14{fill:#34487F;}
</style>
<g id="Layer_2">
	<rect x="-78.4" class="st0" width="659" height="453.8"/>
	<ellipse class="st1" cx="437.1" cy="148" rx="79" ry="86.5"/>
	<ellipse class="st2" cx="437.4" cy="147.7" rx="62.3" ry="68.2"/>
</g>
<g id="Layer_4">
	<rect x="233.5" y="201.6" class="st3" width="49.4" height="195.6"/>
	<rect x="282.4" y="252.5" class="st3" width="116.3" height="131.3"/>
	<rect x="171.2" y="282.4" class="st3" width="116.3" height="131.3"/>
	<rect x="12.2" y="285" class="st3" width="49.4" height="159.1"/>
	<rect x="66.2" y="176.9" class="st3" width="62.8" height="216.7"/>
	<rect x="72.9" y="152.7" class="st3" width="49.4" height="38.1"/>
	<rect x="540.9" y="250.5" class="st3" width="39.6" height="131.3"/>
	<rect x="398.3" y="331.8" class="st3" width="39.6" height="69.5"/>
	<rect x="41.5" y="345.7" class="st3" width="39.6" height="29.9"/>
	<rect x="-78.4" y="270.1" class="st3" width="39.6" height="69.5"/>
	<rect x="-58.4" y="240.5" class="st3" width="18" height="31.6"/>
	<rect x="416.3" y="302.3" class="st3" width="18" height="31.6"/>
	<rect x="56.9" y="315.1" class="st3" width="18" height="31.6"/>
</g>
<g id="Layer_1_1_">
	<g>
		<path class="st4" d="M239.2,72.4c-1,1.4-2.7,1.8-4.5,2.1c-4.7,0.8-9.8,2.4-14.5,2.6c-3.6,0.2-6.9,1-10.5,2
			c-3.6,1-7.5,1.8-10.6,3.7c-7.5,4.6-16.8,5.5-24.6,9.7c-3.8,2-7.1,4.6-11,6.5c-3.6,1.8-7.6,1.7-11.2,3.5c-3.4,1.7-6.7,3.3-10.2,5
			c-3.6,1.8-8.4,1.8-11.6,4.2c-1.8,1.4-0.9,2.2,1.4,2.4c2.9,0.2,6.1-1.3,8.9-2c3.9-0.9,7.9-2,11.8-2.6c1.8-0.3,2.4-0.3,3.2,1.1
			c0.4,0.6,0,1,0.6,1.6c0.8,0.8,2.3,0.5,3.4,0.5c1.9-0.1,3.6-0.8,5.5-0.9c2-0.2,3.9,0.3,5.8-0.2c4-0.9,7.2-2.6,10.8-4.2
			c1-0.4,2.2-0.5,3.1-1c1-0.5,1.7-1.3,2.7-1.8c0.7-0.4,1.6-0.5,2.4-0.7c1.3-0.5,2.6-1.3,4-1.7c1.5-0.5,3.2-0.5,4.8-0.9
			c3-0.8,4.7-1.4,7.3-3.2c2.4-1.7,5.2-3.4,8.2-3.9c0.8-0.2,1.8,0.1,2.5-0.1c0.9-0.3,1.4-1,2.4-1.2c0,1.9-2.8,2.6-4.1,3.2
			c-1.6,0.8-2.8,1.6-4.1,2.8c-1.3,1.3-2.7,2.7-4,4.1c-2.2,2.2-4.6,3.4-7.4,4.7c-3,1.4-6.2,2.2-9.3,3.4c-4.7,2-9.2,4.4-14.2,6
			c-4,1.3-8.1,2.2-12.2,3.4c-2.2,0.7-4.3,1.5-6.5,2c-2.1,0.5-3.7,0-5.7-0.1c-3.4-0.1-7.4-0.5-10.6,1c-1.4,0.7-2.6,1.6-4,2.3
			c-2.5,1-4.8,1.5-7.5,2.1c-3.2,0.7-6.2,1.6-9.3,2.8c-2.2,0.8-5.4,2.7-7.9,2.5c-1.4-0.1-2.5-1.1-3.7-1.8c-3.1-1.6-6.1-1.4-9.5-1.8
			c-2.8-0.4-5.8-0.4-8.4-1.1c-2.7-0.7-4.6-1.8-7.4-2c-1.9-0.2-3.9-0.9-5.8-0.7c-3.1,0.3-7.3,1.8-10.1,3.1c-1.5,0.7-3.9,2.5-4.3,4.2
			c-0.4,1.9,0.8,2.6-0.3,4.5c-1.9,3.2-7.1,4.7-10.3,6.1c-4.1,1.6-8.1,3.4-12.3,4.9c-4.2,1.5-8.2,3.8-12.5,5.1
			c-1.2,0.4-3.2,0.4-3.6,1.8c-0.7,2.4,2.9,2.8,4.3,2.8c2.8,0.1,5.4-0.6,8.1-0.8c3.2-0.3,5.7,0.6,8.5,2.1c3.3,1.7,5.7,0.8,9.2-0.3
			c4.8-1.6,9.6-3.3,14.5-4.8c7.9-2.4,15.3-8.7,24-8.5c-0.3,0.6-0.7,1.1-1.2,1.6c4.2-1.5,7.8-0.9,11.7,1.1c-1.6-0.4-3.1,0.7-4.6,1.2
			c-2.3,0.8-4.6,1.1-6.8,2c-4.3,1.6-8.4,2.8-12.9,3.4c-4.5,0.7-9.6,3.7-13.1,6.5c-2.3,1.9-4.9,3.1-7.4,4.7c-2.1,1.3-3.8,3-6,4.1
			c-4.4,2.2-8.6,2.1-13.4,1.1c-2.3-0.5-4.6-1.6-6.7-2c-1.4-0.2-2.6,0.7-4.1,0.8c-2.7,0.2-5.3-1-7.9-1.8c-3.5-1-6.8-1-10.5-0.4
			c-5.5,1.1-9.7,4.2-14.4,6.9c-5,2.9-11.2,3.9-16.7,5.7c-2.9,1-6.1,1.4-9.2,1.2c-3.7-0.3-6.6-2-10.1-2.9c-2.9-0.8-5.7-0.5-8.6-0.9
			c-2.1-0.3-3.8-0.8-5.9-0.5c-7.5,1.3-14.3,3.7-21.8,4.4c-0.8,0.1-1.5,0.2-2.3,0.2V160c2.6-1.8,5.3-3.4,7.5-5.6
			c1.2-1.1,2.6-2.6,4-3.5c1.3-0.9,2.8-1.3,4.4-1.6c1.8-1,3.2-1.5,4.8-2.8c0.9-0.8,1.6-1.3,2.8-1.6c1-0.3,2.4,0,3.3-0.3
			c1.2-0.5,2.2-1.8,3.2-2.6c1.8-1.5,3.2-3.2,5.3-4.3c2.8-1.5,4.8-3.8,6.5-6.5c1.7-2.7,2.3-5.5,3.4-8.3c1.2-3,2.5-5.1,5.9-5
			c3.3,0.1,5.7-1.3,7.8-4c1.4-1.9,3.4-6.7,6.1-6c1.4,0.4,2.7,1.8,4.1,2.4c1.5,0.7,3.1,1.7,4.8,2c2.7,0.4,5.1,1.1,7.9,0.6
			c5.9-1.1,11.7-2.7,17.5-4.5c2.7-0.8,5.6-1.2,8.3-1.8c1.5-0.3,2.9-0.2,4.4-0.8c1.9-0.8,3.6-1.9,5.3-2.9c3-1.9,6.7-3.4,10.2-4.3
			c2.1-0.5,4.3,0.2,6.4-0.1c0.9-0.1,1.3-0.6,2.1-0.8c1.1-0.3,2.4,0.1,3.6-0.2c2.1-0.4,3.9-1,6.1-0.7c2.4,0.4,4.5,1.5,6.9,1.5
			c3.3,0.1,5.7-0.7,8.8-1.4c2.1-0.5,4.3-1.4,6.3-1.8c3-0.5,4.5,2.1,5.6,4.4c3.4,6.8,11.2,5.5,17.4,6.3c6.6,0.9,13.6-2.5,18.7-6.4
			c1.6-1.2,3.3-2.3,4.8-3.6c1.1-0.9,2-2.4,3.2-3c1.1-0.7,2.6-0.7,3.9-1.1c2.3-0.8,4.8-1.7,6.9-2.9c0.8-0.4,1.5-1.3,2.3-1.6
			c1.3-0.6,2.9-0.4,4.3-0.9c3.7-1.4,7-2.5,11-2.9c10.5-1,20.4-4.6,30.3-8c3.1-1.1,6.2-1.4,9.1-2.8h32.7V72.4z"/>
	</g>
	<g>
		<path class="st4" d="M579.2,91.6c0.2,0,0.4-0.1,0.6-0.1c-5.6,3.1-13,3.3-19.3,3.3c-5.7,0-11.4,0-17,0c-2.7,0-5.4,0.1-8.1,0
			c-3.2-0.1-6.2,1-9.4,1.7c-2.6,0.6-4.9,1.2-7.4,2.3c-1.5,0.7-2.3,1.6-3.6,2.5c-1.1,0.8-2.3,0.9-3.6,1.1c-1.4,0.3-3,0.2-4.5,0.5
			c-2,0.5-4,1.8-5.7,2.7c-1.4,0.7-2.7,1.8-4.2,2.1c-1.5,0.3-3.1-0.2-4.7,0.1c-1.8,0.4-3.7,0.4-5.6,0.8c-1.2,0.3-2.4,1-3.6,1.3
			c-2.8,0.7-5,0.8-7.8,0.9c-7.3,0.5-12.7,4.6-19.6,6.3c-1.1,0.3-2.1,0.1-3.2,0.2c-1.9,0.1-2,0.9-3.2,2.1c-1.9,1.9-4.2,2.1-6.1,4
			c-2,2.1-3.8,4.4-6.1,6.2c-1.6,1.2-4.8,1.5-6.9,1.6c-5.6,0.2-11.1,1.5-16.6,2.4c-4.2,0.7-8.1,1.4-12.3,2.4c-4.1,1-7.8,2.6-11.8,3.9
			c-1.4,0.4-2.8,0.7-4,1.4c-1.3,0.8-2.3,1.9-3.7,2.6c-3.3,1.8-7.1,2.6-10.7,3.6c-3,0.8-5.8,2.3-8.8,3.3c-1.2,0.4-2.5,1.1-3.7,1.3
			c-2,0.4-4,0.4-6.1,0.9c-3.4,0.9-5.4,1-8,3.2c-3.1,2.6-8,2.7-11.8,4c-6.9,2.5-12,8.1-19.1,10.2c-6,1.9-13.1,1.3-18.5,5.3
			c-1.4,1-3,2.1-4.3,3.2c-1.4,1.2-2.3,2.8-4.1,3.6c-1.9,0.9-4.1,1.1-6.1,1.7c-2.1,0.6-3.9,1.5-5.9,2.3c-3.3,1.2-7.2,1.1-10.6,0.4
			c-1.6-0.3-3.2-1-4.9-1.2c-3.7-0.6-7.7-0.2-11.4-0.2c-8.2-0.1-14.6,4.5-22,7.3c-4.3,1.6-8.5,2.6-13,3.4c-2.2,0.4-4.2,1.1-6.4,1.5
			c-1.6,0.3-3.3,0.9-4.8,1.6c1.5,0.1,2.8-0.6,4.2-0.9c2-0.4,4.1-0.6,6.1-1c2.4-0.5,4.9-0.8,7.4-1.2c3.2-0.5,6.4-1.2,9.7-1.6
			c5.1-0.7,10.2-1,15.4-1c2.2,0,4.3,0.1,6.4-0.4c2.6-0.6,4.8-1.3,7.5-1.3c3.9,0.1,7.6-0.9,11.5-0.8c2.5,0.1,4.9,0.5,7.5,0.3
			c4.4-0.4,8.2-1.5,12.5-2.5c3.6-0.8,7.1-1.8,10.6-2.8c2.4-0.7,3-0.5,5.3,0.3c1.8,0.6,4.1,0.4,5.9,0c1.9-0.4,2.6-0.6,4.4-0.2
			c1.8,0.3,3.6,0.2,5.5,0.2c2.4,0,4.7,0.7,7.2,0.3c3.3-0.5,5.7-2.3,8.3-4.2c2-1.4,3.4-1.5,5.8-1.9c3-0.5,6-1.8,9-2.5
			c2.4-0.6,2.1-0.7,3.9,0.7c2.3,1.6,5.7,0.5,8.2-0.1c7.5-1.7,13.8-6.8,19.5-11.8c2.2-1.9,4.1-4.5,6.4-6.2c3.2-2.4,6.9-2,10.6-2.8
			c6-1.3,11.9-3.6,18.1-4.5c3.4-0.5,6.7-1,10-2.2c4.9-1.8,10.2-2.5,15.4-3c3.3-0.3,6.6-0.9,9.9-1.5c1-0.2,2.1-0.4,2.9-1
			c1-0.7,0.9-1.3,1.8-2c2.1-1.9,6.8-1.6,9.6-2.3c6.3-1.6,12.8-2,19.2-3.7c3.6-1,7.1-2.5,10.6-3.6c3.6-1.1,7.2-1.8,10.6-3.4
			c1-0.5,2.8-1.1,3.5-2c1.1-1.4-0.3-2.9,0.5-4.5c8.8-2.5,18.6-0.7,27.3,1.2c4.7,1,9.3,2.6,14.1,2.7c2.3,0.1,4.5-0.2,6.8-0.1
			c2.4,0.2,4.6,0.8,7.1,0.9c1.6,0.1,3.8,0.4,5.4-0.2c2.2-0.7,3.3-2.7,4.4-4.5c1.3-2.1,2.8-4,3.3-6.5c0.4-1.8,0.1-3.7,0.1-5.5
			c0-1.6,0.1-3.2-0.2-4.9c-0.4-2.3,0.1-4.4-0.4-6.7c-0.4-1.1-0.6-2.3-0.7-3.4c0.3-1,0.4-2,0.3-3.1c-0.2-1.2-1.4-3.1,1-3.4"/>
	</g>
	<g>
		<path class="st4" d="M514.2,146.9c-3.7,0-6.9,0-10.4,1.4c-1.6,0.7-3.3,1.1-5,1.8c-2.4,1-3.9,2.4-6.5,2.5
			c-7.1,0.2-14.1,1.1-21.1,2.6c-1.8,0.4-3.4,1-5,1.6c-0.8,0.3-1.5,0.3-2.3,0.6c-1.2,0.4-1.4,1-2.6,1.7c-2.1,1.3-4.8,0.8-7.2,0.8
			c-2,0-4.1,0-6.1,0c-4.5,0-9,0-13.4,0c-3.1,0-7.9-1-10.3,1.4c2.2,0.6,5.1,0.2,7.5,0.2c3,0,5.9,0,8.9,0c3.2-0.1,6.1,0.9,9.4,0.8
			c3.4-0.1,6.5,0.8,9.9,0.8c5.3-0.1,10.5,0,15.7,0c3.1,0,5.8-0.1,8.5-1.6c1-0.6,1.9-1.3,2.7-2c1.5-1.2,2.5-1.3,4.5-1.2
			c1.8,0.1,3.2,0.1,4.9-0.4c1.1-0.3,1.8-0.5,2.9-0.4c1.5,0.3,2.8,0.8,4.4,0.8c1.8,0.1,3.2-0.5,5-0.8c1.6-0.3,3.3-0.1,5-0.1
			c1.1,0,3.7,0.6,4.6-0.1c2.2-1.5-1.9-5.3,1.6-7.1c2-1.1,4.7-0.7,6.9-1c2.6-0.4,4.7-0.9,7.4-0.8c2.4,0.2,5,1,7.5,1.5
			c1.2,0.2,2.3,0.1,3.4,0.2c1.5,0.1,2.7,0.6,4.2,0.9c2.8,0.5,5,0.3,6.2,3.3c0.5,1.4-0.2,2.4,1,3.6c1.3,1.3,3.6,1.1,5.3,1.5
			c2.5,0.6,4,1.5,6.1,2.9c1.8,1.1,5.5,1.6,7.1-0.3c-1.8-1.4-5.6-2.3-7.8-3c-1.4-0.5-2.8-1-4.1-1.9c-0.7-0.5-1.2-1-2-1.3
			c-0.6-0.3-1-0.1-1.5-0.5c-0.3-0.3-2.6-3.9-2.6-4.5c-0.2-1.5,1-2.6,0.1-4.4c-1.8-3.2-5.6-5.3-9-6.1c-2.8-0.7-5.7-1.5-8.6-1.8
			c-1.5-0.1-3.1,0.3-4.7-0.1c-2.1-0.4-3.7-0.8-5.9-0.7c-4.2,0-8.4-0.1-12.4,0.8c-1.7,0.4-2.5,1.4-2.9,3.1c-0.3,1.3-0.7,2.7-0.9,4.1
			c-0.2,0.1-0.4,0.1-0.7,0.2"/>
	</g>
	<g>
		<g>
			<path class="st4" d="M316.2,208.5c-3.2,1.4-6.5,2.3-9.9,3.3c-4.5,1.4-8.8,3.4-13.1,5c-3.4,1.3-6.8,2.9-10.4,3.9
				c-2.3,0.6-4.4,0.9-6.5,2c-2.2,1.1-4.3,2-6.6,2.6c-4.1,1.1-8.1,2.4-12,3.8c-3.4,1.2-7.5,2.8-11.2,2c-2.9-0.7-5.3-2-8.3-1.3
				c-4.6,1-9.2,2.4-13.8,3c-2.9,0.4-6.1,0.1-9.1,0.1c-4.4,0-8,0.8-12.3,2c-4.4,1.1-9,2.2-13.5,2.2c-2.1,0-3.8-0.8-5.8-0.9
				c-2.6-0.2-5.2,0.1-7.8,0c-6.1-0.1-12,2.1-18.1,2.1c-5.1,0-10.3-1.3-15.4-1.3c-2.7,0.1-5.5-0.3-8.1,0.2c-3,0.5-6,2-8.8,3.1
				c-4.4,1.9-8.9,3.7-13.1,5.7c-4.1,1.9-8.4,3.1-12.8,4.3c-2.9,0.8-5.9,1.1-8.8,1.6c-3.8,0.6-7.7,1.8-11.6,2.1
				c-3.9,0.4-10.8-0.7-12.7-4.6c-0.8-1.5,0.2-3.2,0.9-4.8c0.8-1.8,3.4-3.3,3.5-5.1c-1.8-1.6-3.7-0.1-4.1-3.1c-0.3-1.9,0.2-4.2,1-5.9
				c2.5-5.6,9.4-9.6,9.7-16.1c0.2-2.9-1.2-3.9-4.1-4.1c-3.8-0.2-7.7,0.3-11.5,0.1c-3.1-0.1-5.9-1.4-8.9-1.7c-3.1-0.3-5.9,0.7-9,0.9
				c-5.9,0.4-11.1-2.2-16.8-2.5c-2.5-0.1-4.8,0.8-7.3,0.9c-3.3,0.1-6.5-0.6-9.8-0.3c-8.6,0.8-17.1,1.1-25.8,1.1
				c-3.7,0-7.2,0.1-10.8,1c-2.4,0.6-5.4,1.1-7.8,0.5c-2.4-0.6-4.9-2-7.1-3.1c-3.2-1.6-6.6-2.8-10-4.1c-6.9-2.7-14.6-2.9-21.6-5.3
				c-1.4-0.5-4-2-5.5-1.9v2.2c0.5,0.4,1.1,0.7,1.5,0.9c4.7,2.4,9.1,5.4,13.6,8c4.5,2.6,9.2,5.1,13.4,8.1c1.3,1,3,1.8,3.7,3.4
				c0.5,1,0.1,1.7,0.3,2.7c0.7,4,6.1,4.7,9.6,5.3c3,0.5,6.3,1.1,9.4,0.8c1.9-0.2,3.7-0.6,5.6-0.7c6.5-0.3,12.8,0.5,19.2,1.4
				c4.1,0.6,8.3,1.3,12.4,2.1c4.4,0.8,8.7,0.6,13.2,0.6c3.8,0,7.3-0.7,11-0.9c1.7-0.1,5.4-0.6,6.5,0.7c0.5,0.6,0.4,1.8,0.9,2.4
				c1.1,1.2,2.8,2.2,4,3.4c1.1,1,2,1.8,3.3,2.3c1,0.4,2.8,0.4,3.6,1.4c1.6,2.2-1.2,3.1-2.6,4.3c-1.4,1.2-2.3,2.9-3.7,4.2
				c-1.3,1.2-1.8,1.6-2.4,3.2c-0.6,1.4-0.6,2.8-1.4,4.1c-1.1,1.6-3.1,2.4-4.8,3.2c-2.6,1.3-5,2.1-7.9,2.4c-2.8,0.4-5.5,1.4-8.3,2.2
				c-1.9,0.5-5.3,1.5-6.3,3.3c0.2,0.1,0.4,0.1,0.5,0.2l-22.7,0.8c1.1,1.4,2.6,0.6,4.1,0.8c2,0.3,3.6,0,5.7,0c3.2,0,6.5-0.3,9.7,0.2
				c4.5,0.6,9.1,1,13.6,0.5c6.9-0.9,13.9-1.4,20.8-1.4c2.7,0,5.1,0.3,7.8,0.7c1.6,0.3,3.4,0.6,5,0.8c2.1,0.2,3.7-0.6,5.7-0.7
				c1.7-0.1,3.4,0.2,5.1,0c1.8-0.2,3.3-0.7,5.1-0.8c2.7-0.1,5.6,0.4,8.3,0.1c2.3-0.3,4.6-0.7,6.8-0.9c2.8-0.4,5.8-0.4,8.5-0.9
				c4.5-0.9,9.4-1.5,13.8-2.8c4-1.2,8.1-3.7,12.1-4.3c4.1-0.7,9.1-0.7,13-2.3c7.2-3,14.2-5.4,21.8-6.8c6.6-1.3,13.3-1.8,20-2.6
				c7.8-1,15.5-3.7,23.4-3.7c2.2,0,4.9-0.5,6.9,0.2c1.8,0.6,2.9,1.3,4.9,1.4c2.3,0.2,4.3,0.9,6.6,0.8c3.7-0.1,7.5-0.1,11.2,0
				c4.6,0.1,8.7-1.6,13.3-2.3c3.1-0.5,6.2-1,9.4-1.8c2.4-0.6,4.6-0.6,7-0.8c3.1-0.3,4.5-1.6,6.9-3.3c2.1-1.4,3.9-3,5.9-4.5
				c3.3-2.5,7.1-4.4,10.6-6.7c4.4-2.9,9.1-5.6,13.8-8.1c2.7-1.4,5.3-2.9,8-4c2.6-1,4.6-2.7,7.4-3.5c2.1-0.6,3.6-1.9,5.5-3.1
				C319.3,207.2,317.5,207.9,316.2,208.5z M22.9,266.7c0.6-0.2,1.1-0.4,1.8-0.5c1.1-0.2,2.2,0.1,3.3,0c2.1-0.2,3-1,5.1-0.1
				c0.2,0.1,0.3,0.1,0.5,0.2L22.9,266.7z"/>
		</g>
	</g>
	<path class="st5" d="M227.9,453.8h-64.4V159.3c0,0.1,13.9-13.8,13.8-13.8h36.8c-0.1,0,13.8,13.9,13.8,13.8V453.8z"/>
	<rect x="251" y="313.8" class="st5" width="151.9" height="140"/>
	<rect x="287.6" y="265.9" class="st5" width="75.2" height="54.1"/>
	<path class="st5" d="M347.3,272.1h-42.7v-27c0-11.8,9.6-21.4,21.4-21.4l0,0c11.8,0,21.4,9.6,21.4,21.4V272.1z"/>
	<polygon class="st5" points="484.2,453.8 433.8,453.8 433.8,241.7 484.2,193.3 	"/>
	<rect x="386.9" y="379.7" class="st5" width="194.1" height="74.1"/>
	<rect x="493.5" y="223.7" class="st5" width="47.4" height="230.1"/>
	<rect x="505.3" y="182" class="st5" width="23.7" height="41.7"/>
	<rect x="27.1" y="373.5" class="st5" width="294" height="80.3"/>
	<rect x="96.6" y="241.7" class="st5" width="77.7" height="132.8"/>
	<rect x="-40.9" y="185.1" class="st5" width="68" height="269.8"/>
	<rect x="101.2" y="234.5" class="st5" width="64.4" height="8.2"/>
	<rect x="107.6" y="220.1" class="st5" width="60.8" height="22.1"/>
	<rect x="476.5" y="307.1" class="st5" width="23" height="146.7"/>
	<rect x="533.2" y="276.2" class="st5" width="47.3" height="146.7"/>
	<rect x="-78.4" y="334.4" class="st5" width="61.8" height="120.5"/>
</g>
<g id="Layer_3">
	<rect x="171.7" y="160.9" class="st6" width="2.6" height="124.1"/>
	<rect x="177.4" y="160.9" class="st6" width="2.6" height="124.1"/>
	<rect x="183.1" y="160.9" class="st6" width="2.6" height="124.1"/>
	<rect x="188.7" y="160.9" class="st6" width="2.6" height="124.1"/>
	<rect x="194.4" y="160.9" class="st6" width="2.6" height="124.1"/>
	<rect x="200.1" y="160.9" class="st6" width="2.6" height="124.1"/>
	<rect x="205.7" y="160.9" class="st6" width="2.6" height="124.1"/>
	<rect x="211.4" y="160.9" class="st6" width="2.6" height="124.1"/>
	<rect x="217.1" y="160.9" class="st6" width="2.6" height="124.1"/>
	<rect x="109.5" y="271.6" class="st7" width="2.6" height="81.9"/>
	<rect x="115.1" y="271.6" class="st7" width="2.6" height="81.9"/>
	<rect x="120.8" y="271.6" class="st7" width="2.6" height="81.9"/>
	<rect x="126.4" y="271.6" class="st7" width="2.6" height="81.9"/>
	<rect x="132.1" y="271.6" class="st7" width="2.6" height="81.9"/>
	<rect x="137.8" y="271.6" class="st7" width="2.6" height="81.9"/>
	<rect x="143.4" y="271.6" class="st7" width="2.6" height="81.9"/>
	<rect x="149.1" y="271.6" class="st7" width="2.6" height="81.9"/>
	<rect x="154.8" y="271.6" class="st7" width="2.6" height="81.9"/>
	<path class="st8" d="M297.7,308.1h-3.7v-29.1c0-1,0.8-1.8,1.8-1.8l0,0c1,0,1.8,0.8,1.8,1.8L297.7,308.1L297.7,308.1z"/>
	<path class="st8" d="M307.7,308.1H304v-29.1c0-1,0.8-1.8,1.8-1.8l0,0c1,0,1.8,0.8,1.8,1.8L307.7,308.1L307.7,308.1z"/>
	<path class="st8" d="M317.6,308.1h-3.7v-29.1c0-1,0.8-1.8,1.8-1.8l0,0c1,0,1.8,0.8,1.8,1.8L317.6,308.1L317.6,308.1z"/>
	<path class="st8" d="M327.5,308.1h-3.7v-29.1c0-1,0.8-1.8,1.8-1.8l0,0c1,0,1.8,0.8,1.8,1.8L327.5,308.1L327.5,308.1z"/>
	<path class="st8" d="M337.4,308.1h-3.7v-29.1c0-1,0.8-1.8,1.8-1.8l0,0c1,0,1.8,0.8,1.8,1.8L337.4,308.1L337.4,308.1z"/>
	<path class="st8" d="M347.3,308.1h-3.7v-29.1c0-1,0.8-1.8,1.8-1.8l0,0c1,0,1.8,0.8,1.8,1.8L347.3,308.1L347.3,308.1z"/>
	<path class="st8" d="M357.3,308.1h-3.7v-29.1c0-1,0.8-1.8,1.8-1.8l0,0c1,0,1.8,0.8,1.8,1.8L357.3,308.1L357.3,308.1z"/>
	<path class="st7" d="M267,365.3h-7.2v-36.8c0-1,0.8-1.8,1.8-1.8h3.6c1,0,1.8,0.8,1.8,1.8L267,365.3L267,365.3z"/>
	<path class="st7" d="M282.8,365.3h-7.2v-36.8c0-1,0.8-1.8,1.8-1.8h3.6c1,0,1.8,0.8,1.8,1.8L282.8,365.3L282.8,365.3z"/>
	<path class="st7" d="M298.6,365.3h-7.2v-36.8c0-1,0.8-1.8,1.8-1.8h3.6c1,0,1.8,0.8,1.8,1.8L298.6,365.3L298.6,365.3z"/>
	<path class="st7" d="M314.5,365.3h-7.2v-36.8c0-1,0.8-1.8,1.8-1.8h3.6c1,0,1.8,0.8,1.8,1.8L314.5,365.3L314.5,365.3z"/>
	<path class="st7" d="M330.3,365.3h-7.2v-36.8c0-1,0.8-1.8,1.8-1.8h3.6c1,0,1.8,0.8,1.8,1.8L330.3,365.3L330.3,365.3z"/>
	<path class="st7" d="M346.1,365.3h-7.2v-36.8c0-1,0.8-1.8,1.8-1.8h3.6c1,0,1.8,0.8,1.8,1.8L346.1,365.3L346.1,365.3z"/>
	<path class="st7" d="M362,365.3h-7.2v-36.8c0-1,0.8-1.8,1.8-1.8h3.6c1,0,1.8,0.8,1.8,1.8L362,365.3L362,365.3z"/>
	<path class="st7" d="M377.8,365.3h-7.2v-36.8c0-1,0.8-1.8,1.8-1.8h3.6c1,0,1.8,0.8,1.8,1.8L377.8,365.3L377.8,365.3z"/>
	<path class="st7" d="M393.6,365.3h-7.2v-36.8c0-1,0.8-1.8,1.8-1.8h3.6c1,0,1.8,0.8,1.8,1.8L393.6,365.3L393.6,365.3z"/>
	<rect x="109.5" y="260.3" class="st7" width="2.6" height="5.7"/>
	<rect x="115.1" y="260.3" class="st7" width="2.6" height="5.7"/>
	<rect x="120.8" y="260.3" class="st7" width="2.6" height="5.7"/>
	<rect x="126.4" y="260.3" class="st7" width="2.6" height="5.7"/>
	<rect x="132.1" y="260.3" class="st7" width="2.6" height="5.7"/>
	<rect x="137.8" y="260.3" class="st7" width="2.6" height="5.7"/>
	<rect x="143.4" y="260.3" class="st7" width="2.6" height="5.7"/>
	<rect x="149.1" y="260.3" class="st7" width="2.6" height="5.7"/>
	<rect x="154.8" y="260.3" class="st7" width="2.6" height="5.7"/>
	<rect x="6.5" y="212.9" class="st9" width="2.6" height="3.1"/>
	<rect x="12.2" y="212.9" class="st9" width="2.6" height="3.1"/>
	<rect x="-32.6" y="252" class="st9" width="2.6" height="3.1"/>
	<rect x="-4.8" y="287.6" class="st9" width="2.6" height="3.1"/>
	<rect x="115.1" y="237.6" class="st7" width="2.6" height="3.1"/>
	<rect x="120.8" y="237.6" class="st7" width="2.6" height="3.1"/>
	<rect x="126.4" y="237.6" class="st7" width="2.6" height="3.1"/>
	<rect x="132.1" y="237.6" class="st7" width="2.6" height="3.1"/>
	<rect x="307.7" y="254.6" class="st7" width="4.7" height="3.1"/>
	<rect x="318.1" y="254.6" class="st7" width="4.7" height="3.1"/>
	<rect x="328.5" y="254.6" class="st7" width="4.7" height="3.1"/>
	<rect x="339" y="254.6" class="st7" width="4.7" height="3.1"/>
	<rect x="137.8" y="237.6" class="st7" width="2.6" height="3.1"/>
	<rect x="143.4" y="237.6" class="st7" width="2.6" height="3.1"/>
	<rect x="149.1" y="237.6" class="st7" width="2.6" height="3.1"/>
	<rect x="154.8" y="237.6" class="st7" width="2.6" height="3.1"/>
	<rect x="11.1" y="235.6" class="st9" width="2.6" height="3.1"/>
	<rect x="-0.2" y="235.6" class="st9" width="2.6" height="3.1"/>
	<rect x="-4.3" y="235.6" class="st9" width="2.6" height="3.1"/>
	<rect x="460.6" y="291.7" class="st9" width="3.1" height="2.6"/>
	<rect x="444.1" y="247.9" class="st9" width="3.1" height="2.6"/>
	<rect x="444.1" y="259.2" class="st9" width="3.1" height="2.6"/>
	<rect x="444.1" y="263.4" class="st9" width="3.1" height="2.6"/>
	<rect x="455.4" y="276.2" class="st9" width="3.1" height="2.6"/>
	<rect x="471.9" y="274.7" class="st9" width="3.1" height="2.6"/>
	<rect x="471.9" y="240.7" class="st9" width="3.1" height="2.6"/>
	<rect x="471.9" y="236.6" class="st9" width="3.1" height="2.6"/>
	<line class="st10" x1="466.2" y1="185.6" x2="466.2" y2="212.4"/>
	<line class="st10" x1="325.7" y1="219.6" x2="325.7" y2="225.8"/>
	<line class="st10" x1="181.5" y1="139.8" x2="181.5" y2="148"/>
	<line class="st10" x1="209.8" y1="139.8" x2="209.8" y2="148"/>
	<circle class="st11" cx="181.5" cy="139.3" r="1.5"/>
	<circle class="st11" cx="209.8" cy="139.3" r="1.5"/>
	<circle class="st12" cx="466.2" cy="184.6" r="1.5"/>
</g>
<rect x="-3.8" y="447.4" class="st13" width="517.3" height="249.4"/>
<polygon class="st14" points="512.1,699.7 -1.2,699.7 -1.2,589.6 512.1,517.8 "/>
<ellipse transform="matrix(0.323 -0.9464 0.9464 0.323 -290.8834 834.6089)" class="st1" cx="437.9" cy="620.6" rx="79" ry="79"/>
<ellipse transform="matrix(0.323 -0.9464 0.9464 0.323 -290.5103 834.8095)" class="st2" cx="438.2" cy="620.5" rx="62.3" ry="62.3"/>
<g id="Layer_1_2_">
	<g>
		<path class="st4" d="M239.2,609.8h-32.7c-2.9-0.7-6-0.9-9.1-1.5c-9.9-1.8-19.8-3.7-30.3-4.2c-4-0.2-7.3-0.8-11-1.5
			c-1.4-0.3-3-0.2-4.3-0.5c-0.8-0.2-1.5-0.6-2.3-0.9c-2.1-0.6-4.6-1.1-6.9-1.5c-1.2-0.2-2.7-0.2-3.9-0.6c-1.2-0.4-2.1-1.1-3.2-1.6
			c-1.5-0.7-3.2-1.3-4.8-1.9c-5.1-2-12.1-3.8-18.7-3.3c-6.2,0.5-14-0.2-17.4,3.3c-1.1,1.2-2.6,2.6-5.6,2.3c-2-0.2-4.2-0.6-6.3-0.9
			c-3.1-0.4-5.5-0.8-8.8-0.8c-2.4,0-4.5,0.6-6.9,0.8c-2.2,0.2-4-0.1-6.1-0.4c-1.2-0.1-2.4,0.1-3.6-0.1c-0.8-0.1-1.1-0.4-2.1-0.4
			c-2.1-0.1-4.3,0.2-6.4-0.1c-3.5-0.5-7.2-1.3-10.2-2.3c-1.7-0.5-3.4-1.1-5.3-1.5c-1.5-0.4-2.9-0.3-4.4-0.4
			c-2.8-0.3-5.6-0.5-8.3-0.9c-5.8-0.9-11.5-1.8-17.5-2.3c-2.8-0.3-5.3,0.1-7.9,0.3c-1.7,0.1-3.2,0.6-4.8,1c-1.3,0.3-2.7,1-4.1,1.2
			c-2.7,0.4-4.7-2.2-6.1-3.1c-2.1-1.4-4.4-2.1-7.8-2.1s-4.7-1.1-5.9-2.6c-1.1-1.5-1.7-3-3.4-4.4c-1.7-1.4-3.7-2.6-6.5-3.4
			c-2.1-0.6-3.5-1.5-5.3-2.3c-1-0.4-2-1.1-3.2-1.4c-0.9-0.2-2.3,0-3.3-0.2c-1.2-0.2-1.9-0.5-2.8-0.9c-1.6-0.7-3-1-4.8-1.5
			c-1.6-0.2-3.1-0.4-4.4-0.8c-1.4-0.5-2.7-1.2-4-1.8c-2.3-1.1-4.9-2-7.5-2.9v-11.7c0.8,0,1.5,0.1,2.3,0.1c7.5,0.4,14.3,1.6,21.8,2.3
			c2.2,0.2,3.8-0.1,5.9-0.2c3-0.2,5.7-0.1,8.6-0.5c3.5-0.5,6.4-1.4,10.1-1.5c3.1-0.1,6.2,0.1,9.2,0.6c5.5,0.9,11.6,1.4,16.7,3
			c4.7,1.4,9,3,14.4,3.6c3.6,0.4,6.9,0.4,10.5-0.2c2.6-0.4,5.1-1,7.9-0.9c1.4,0.1,2.6,0.5,4.1,0.4c2.2-0.2,4.5-0.8,6.7-1
			c4.7-0.5,9-0.6,13.4,0.6c2.2,0.6,4,1.5,6,2.2c2.5,0.8,5.1,1.5,7.4,2.5c3.5,1.5,8.6,3,13.1,3.4c4.4,0.3,8.6,1,12.9,1.8
			c2.2,0.5,4.6,0.6,6.8,1.1c1.4,0.3,3,0.8,4.6,0.6c-4,1.1-7.6,1.4-11.7,0.6c0.5,0.2,0.9,0.5,1.2,0.8c-8.6,0.1-16.1-3.2-24-4.5
			c-4.9-0.8-9.7-1.7-14.5-2.5c-3.5-0.6-5.9-1.1-9.2-0.2c-2.9,0.8-5.3,1.2-8.5,1.1c-2.7-0.1-5.4-0.5-8.1-0.4c-1.4,0-5,0.2-4.3,1.5
			c0.4,0.7,2.4,0.7,3.6,0.9c4.3,0.7,8.2,1.9,12.5,2.7c4.1,0.8,8.2,1.7,12.3,2.6c3.3,0.7,8.4,1.5,10.3,3.2c1.1,1-0.2,1.3,0.3,2.3
			c0.4,0.9,2.8,1.8,4.3,2.2c2.8,0.7,7,1.5,10.1,1.6c1.9,0.1,3.9-0.3,5.8-0.4c2.8-0.1,4.7-0.7,7.4-1.1c2.7-0.4,5.7-0.4,8.4-0.6
			c3.3-0.2,6.4-0.1,9.5-0.9c1.2-0.4,2.2-0.9,3.7-0.9c2.5-0.1,5.7,0.9,7.9,1.3c3,0.6,6.1,1.1,9.3,1.5c2.6,0.3,5,0.5,7.5,1.1
			c1.4,0.3,2.6,0.8,4,1.2c3.1,0.8,7.2,0.6,10.6,0.5c2.1-0.1,3.6-0.3,5.7-0.1c2.3,0.2,4.3,0.7,6.5,1.1c4.1,0.6,8.2,1.1,12.2,1.8
			c4.9,0.8,9.4,2.1,14.2,3.1c3.1,0.7,6.3,1.1,9.3,1.8c2.8,0.7,5.2,1.3,7.4,2.5c1.3,0.7,2.7,1.4,4,2.1c1.3,0.6,2.5,1.1,4.1,1.5
			c1.3,0.3,4.1,0.7,4.1,1.7c-0.9-0.1-1.4-0.5-2.4-0.6c-0.7-0.1-1.7,0-2.5-0.1c-3-0.3-5.8-1.2-8.2-2.1c-2.6-0.9-4.3-1.3-7.3-1.7
			c-1.5-0.2-3.3-0.2-4.8-0.5c-1.3-0.2-2.6-0.6-4-0.9c-0.8-0.1-1.7-0.2-2.4-0.4c-1-0.3-1.7-0.7-2.7-0.9c-1-0.2-2.1-0.3-3.1-0.5
			c-3.7-0.8-6.8-1.8-10.8-2.2c-1.9-0.2-3.8,0-5.8-0.1c-1.9-0.1-3.6-0.5-5.5-0.5c-1.1,0-2.6-0.2-3.4,0.3c-0.6,0.3-0.2,0.5-0.6,0.9
			c-0.9,0.7-1.5,0.7-3.2,0.6c-3.9-0.3-8-0.9-11.8-1.3c-2.8-0.4-6-1.1-8.9-1c-2.3,0.1-3.2,0.5-1.4,1.2c3.1,1.3,8,1.3,11.6,2.2
			c3.5,0.9,6.8,1.7,10.2,2.6c3.6,0.9,7.6,0.9,11.2,1.8c3.9,1,7.2,2.4,11,3.4c7.7,2.2,17,2.7,24.6,5.1c3.1,1,7,1.4,10.6,1.9
			c3.5,0.5,6.8,1,10.5,1.1c4.7,0.1,9.8,1,14.5,1.4C236.5,608.9,238.2,609.1,239.2,609.8L239.2,609.8z"/>
	</g>
	<g>
		<path class="st4" d="M580.8,600.2c-2.4-0.2-1.1-1.1-1-1.8c0.1-0.6,0-1.1-0.3-1.6c0.1-0.6,0.3-1.2,0.7-1.8c0.4-1.2-0.1-2.3,0.4-3.5
			c0.3-0.9,0.2-1.7,0.2-2.6c0-1,0.3-1.9-0.1-2.9c-0.5-1.3-2-2.3-3.3-3.4c-1.1-0.9-2.3-2-4.4-2.4c-1.5-0.3-3.7-0.1-5.4-0.1
			c-2.5,0-4.7,0.4-7.1,0.5c-2.3,0.1-4.5-0.1-6.8-0.1c-4.8,0.1-9.4,0.9-14.1,1.4c-8.8,1-18.5,1.9-27.3,0.6c-0.8-0.8,0.6-1.6-0.5-2.3
			c-0.7-0.5-2.5-0.8-3.5-1c-3.4-0.8-6.9-1.2-10.6-1.8c-3.6-0.6-7-1.4-10.6-1.9c-6.3-0.9-12.8-1.1-19.2-1.9c-2.7-0.4-7.5-0.2-9.6-1.2
			c-0.8-0.4-0.8-0.7-1.8-1.1c-0.9-0.3-1.9-0.4-2.9-0.5c-3.2-0.3-6.6-0.6-9.9-0.8c-5.1-0.3-10.5-0.7-15.4-1.6
			c-3.3-0.6-6.6-0.9-10-1.2c-6.2-0.5-12-1.7-18.1-2.4c-3.7-0.4-7.3-0.2-10.6-1.5c-2.3-0.9-4.3-2.3-6.4-3.3c-5.6-2.6-12-5.3-19.5-6.2
			c-2.5-0.3-5.9-0.9-8.2,0c-1.8,0.7-1.5,0.7-3.9,0.4c-3-0.4-6-1.1-9-1.3c-2.3-0.2-3.8-0.2-5.8-1c-2.6-1-5-1.9-8.3-2.2
			c-2.4-0.2-4.7,0.2-7.2,0.2c-1.9,0-3.7-0.1-5.5,0.1c-1.9,0.2-2.6,0.1-4.4-0.1c-1.9-0.2-4.1-0.3-5.9,0c-2.3,0.4-2.9,0.5-5.3,0.1
			c-3.5-0.5-7-1-10.6-1.5c-4.3-0.5-8.1-1.1-12.5-1.3c-2.6-0.1-5,0.1-7.5,0.1c-3.9,0.1-7.6-0.5-11.5-0.4c-2.7,0-4.9-0.4-7.5-0.7
			c-2.1-0.2-4.2-0.2-6.4-0.2c-5.2,0-10.3-0.2-15.4-0.5c-3.2-0.2-6.5-0.6-9.7-0.9c-2.5-0.2-4.9-0.4-7.4-0.6c-2-0.2-4.1-0.4-6.1-0.5
			c-1.4-0.1-2.7-0.5-4.2-0.5c1.5,0.4,3.1,0.7,4.8,0.8c2.2,0.2,4.2,0.6,6.4,0.8c4.5,0.4,8.7,0.9,13,1.8c7.4,1.5,13.7,3.9,22,3.8
			c3.8,0,7.7,0.2,11.4-0.1c1.7-0.1,3.3-0.5,4.9-0.6c3.4-0.4,7.3-0.4,10.6,0.2c2,0.4,3.8,0.9,5.9,1.2c2,0.3,4.2,0.4,6.1,0.9
			c1.8,0.4,2.7,1.2,4.1,1.9c1.3,0.6,2.9,1.2,4.3,1.7c5.4,2.1,12.5,1.8,18.5,2.8c7.1,1.1,12.2,4.1,19.1,5.4c3.8,0.7,8.6,0.7,11.8,2.1
			c2.6,1.2,4.6,1.2,8,1.7c2.1,0.3,4.1,0.2,6.1,0.5c1.2,0.1,2.5,0.5,3.7,0.7c2.9,0.5,5.8,1.3,8.8,1.7c3.6,0.5,7.4,0.9,10.7,1.9
			c1.4,0.4,2.4,0.9,3.7,1.4c1.2,0.4,2.6,0.5,4,0.8c4,0.7,7.7,1.5,11.8,2.1c4.1,0.5,8.1,0.9,12.3,1.3c5.5,0.5,11,1.2,16.6,1.3
			c2.1,0.1,5.3,0.2,6.9,0.8c2.3,0.9,4.1,2.2,6.1,3.2c1.9,1,4.2,1.1,6.1,2.1c1.3,0.6,1.3,1.1,3.2,1.1c1.1,0,2.1-0.1,3.2,0.1
			c6.8,0.9,12.3,3.1,19.6,3.3c2.8,0.1,5,0.1,7.8,0.5c1.2,0.2,2.4,0.5,3.6,0.7c1.9,0.2,3.8,0.2,5.6,0.4c1.5,0.2,3.2-0.1,4.7,0.1
			c1.5,0.1,2.8,0.7,4.2,1.1c1.7,0.5,3.8,1.2,5.7,1.4c1.5,0.2,3,0.1,4.5,0.3c1.3,0.1,2.5,0.2,3.6,0.6c1.3,0.5,2.1,0.9,3.6,1.3
			c2.4,0.6,4.7,0.9,7.4,1.2c3.1,0.4,6.1,0.9,9.4,0.9c2.7,0,5.4,0,8.1,0c5.7,0,11.4,0,17,0c6.3,0,13.6,0.1,19.3,1.7
			c-0.2,0-0.4,0-0.6,0"/>
	</g>
	<g>
		<path class="st4" d="M511.7,571.2c0.3,0,0.5,0.1,0.7,0.1c0.3,0.7,0.6,1.5,0.9,2.2c0.4,0.9,1.2,1.4,2.9,1.6c4,0.5,8.2,0.4,12.4,0.4
			c2.2,0,3.8-0.2,5.9-0.4c1.5-0.2,3.1,0,4.7,0c2.9-0.1,5.8-0.6,8.6-0.9c3.4-0.4,7.2-1.5,9-3.2c1-0.9-0.2-1.5-0.1-2.3
			c0.1-0.3,2.3-2.2,2.6-2.3c0.5-0.2,1-0.1,1.5-0.3c0.8-0.2,1.3-0.4,2-0.7c1.3-0.5,2.7-0.7,4.1-1c2.2-0.4,6-0.8,7.8-1.6
			c-1.5-1-5.3-0.7-7.1-0.1c-2.1,0.7-3.6,1.2-6.1,1.5c-1.7,0.2-3.9,0.1-5.3,0.8c-1.2,0.6-0.5,1.2-1,1.9c-1.2,1.6-3.3,1.5-6.2,1.8
			c-1.5,0.1-2.6,0.4-4.2,0.5c-1.2,0-2.3,0-3.4,0.1c-2.4,0.2-5,0.7-7.5,0.8c-2.7,0.1-4.8-0.2-7.4-0.4c-2.2-0.2-4.9,0.1-6.9-0.5
			c-3.5-1,0.6-2.9-1.6-3.7c-0.9-0.4-3.5-0.1-4.6-0.1c-1.6,0-3.4,0.1-5,0c-1.8-0.2-3.2-0.4-5-0.4c-1.6,0-2.9,0.3-4.4,0.4
			c-1.1,0.1-1.8,0-2.9-0.2c-1.6-0.2-3.1-0.2-4.9-0.2c-2,0-3,0-4.5-0.6c-0.9-0.4-1.8-0.8-2.7-1.1c-2.8-0.8-5.5-0.9-8.5-0.9
			c-5.3,0-10.5,0-15.7,0c-3.3,0-6.5,0.5-9.9,0.4c-3.2,0-6.2,0.5-9.4,0.4c-3,0-5.9,0-8.9,0c-2.4,0-5.3-0.2-7.5,0.1
			c2.4,1.3,7.2,0.8,10.3,0.8c4.5,0,9,0,13.4,0c2,0,4.1,0,6.1,0c2.4,0,5-0.3,7.2,0.4c1.2,0.4,1.3,0.7,2.6,0.9
			c0.8,0.1,1.5,0.2,2.3,0.3c1.6,0.3,3.3,0.7,5,0.9c7,0.8,14,1.3,21.1,1.4c2.7,0.1,4.1,0.8,6.5,1.3c1.6,0.4,3.3,0.6,5,0.9
			c3.5,0.8,6.7,0.8,10.4,0.8"/>
	</g>
	<g>
		<g>
			<path class="st4" d="M320.6,538.7c-1.9-0.6-3.3-1.3-5.5-1.6c-2.7-0.4-4.7-1.3-7.4-1.8c-2.7-0.6-5.4-1.3-8-2.1
				c-4.7-1.3-9.4-2.7-13.8-4.2c-3.5-1.2-7.3-2.2-10.6-3.5c-2-0.8-3.9-1.6-5.9-2.4c-2.4-0.9-3.8-1.6-6.9-1.7c-2.4-0.1-4.6-0.1-7-0.4
				c-3.1-0.4-6.2-0.7-9.4-0.9c-4.6-0.4-8.6-1.2-13.3-1.2c-3.7,0-7.5,0-11.2,0c-2.3,0-4.3,0.3-6.6,0.4c-2,0.1-3.1,0.5-4.9,0.8
				c-2.1,0.3-4.8,0.1-6.9,0.1c-7.9,0-15.6-1.4-23.4-1.9c-6.7-0.4-13.3-0.7-20-1.3c-7.6-0.8-14.6-2-21.8-3.6c-3.9-0.9-8.9-0.8-13-1.2
				c-4.1-0.4-8.2-1.6-12.1-2.3c-4.4-0.7-9.3-1-13.8-1.5c-2.7-0.3-5.7-0.3-8.5-0.5c-2.3-0.1-4.5-0.4-6.8-0.5
				c-2.7-0.2-5.6,0.1-8.3,0.1c-1.8,0-3.3-0.3-5.1-0.4c-1.7-0.1-3.4,0.1-5.1,0c-2-0.1-3.6-0.5-5.7-0.4c-1.6,0.1-3.4,0.3-5,0.4
				c-2.7,0.2-5,0.4-7.8,0.4c-6.9,0-14-0.3-20.8-0.8c-4.6-0.3-9.1-0.1-13.6,0.2c-3.2,0.2-6.5,0.1-9.7,0.1c-2.1,0-3.7-0.1-5.7,0
				c-1.4,0.1-3-0.3-4.1,0.4l22.7,0.4c-0.2,0-0.4,0.1-0.5,0.1c1,0.9,4.4,1.5,6.3,1.8c2.8,0.4,5.5,0.9,8.3,1.1
				c2.9,0.2,5.4,0.6,7.9,1.3c1.7,0.4,3.7,0.8,4.8,1.7c0.9,0.7,0.9,1.4,1.4,2.2c0.6,0.8,1.1,1.1,2.4,1.7c1.4,0.7,2.3,1.5,3.7,2.2
				c1.4,0.6,4.3,1.1,2.6,2.3c-0.7,0.5-2.5,0.5-3.6,0.7c-1.4,0.3-2.3,0.7-3.3,1.2c-1.2,0.6-2.9,1.1-4,1.8c-0.5,0.3-0.4,1-0.9,1.3
				c-1.2,0.7-4.8,0.4-6.5,0.4c-3.7-0.1-7.2-0.5-11-0.5c-4.5,0-8.8-0.1-13.2,0.3c-4.1,0.4-8.3,0.8-12.4,1.1
				c-6.4,0.5-12.7,0.9-19.2,0.8c-1.9-0.1-3.7-0.3-5.6-0.4c-3.1-0.1-6.3,0.2-9.4,0.4c-3.4,0.3-8.9,0.7-9.6,2.8
				c-0.2,0.5,0.2,0.9-0.3,1.4c-0.7,0.9-2.4,1.3-3.7,1.8c-4.2,1.6-8.9,2.9-13.4,4.2c-4.5,1.4-8.9,2.9-13.6,4.2
				c-0.4,0.1-1,0.3-1.5,0.5v1.1c1.5,0.1,4-0.8,5.5-1c7.1-1.2,14.7-1.3,21.6-2.8c3.3-0.7,6.8-1.3,10-2.2c2.2-0.6,4.7-1.3,7.1-1.6
				c2.5-0.3,5.4-0.1,7.8,0.2c3.7,0.5,7.1,0.5,10.8,0.5c8.7,0,17.2,0.1,25.8,0.6c3.3,0.2,6.5-0.2,9.8-0.1c2.5,0,4.8,0.5,7.3,0.5
				c5.8-0.2,11-1.5,16.8-1.3c3.1,0.1,5.8,0.6,9,0.5c3-0.2,5.8-0.8,8.9-0.9c3.8-0.1,7.7,0.1,11.5,0.1c2.8-0.1,4.2-0.6,4.1-2.1
				c-0.3-3.4-7.2-5.5-9.7-8.4c-0.8-0.9-1.2-2.1-1-3.1c0.4-1.6,2.4-0.8,4.1-1.6c-0.1-0.9-2.7-1.8-3.5-2.7c-0.7-0.8-1.7-1.7-0.9-2.5
				c1.9-2.1,8.8-2.6,12.7-2.4c3.9,0.2,7.8,0.8,11.6,1.1c2.9,0.3,5.9,0.5,8.8,0.9c4.3,0.6,8.7,1.3,12.8,2.2c4.3,1,8.8,2,13.1,3
				c2.8,0.6,5.8,1.4,8.8,1.6c2.6,0.2,5.4,0.1,8.1,0.1c5.1,0,10.2-0.7,15.4-0.7c6.1,0,12,1.1,18.1,1.1c2.6,0,5.2,0.1,7.8,0
				c2-0.1,3.7-0.5,5.8-0.5c4.5,0,9.2,0.5,13.5,1.1c4.3,0.6,7.9,1,12.3,1c3,0,6.2-0.2,9.1,0c4.6,0.4,9.2,1.1,13.8,1.6
				c3.1,0.4,5.5-0.3,8.3-0.7c3.7-0.4,7.8,0.4,11.2,1c4,0.8,8,1.4,12,2c2.4,0.3,4.5,0.8,6.6,1.4c2.1,0.5,4.2,0.7,6.5,1
				c3.6,0.5,6.9,1.4,10.4,2.1c4.4,0.9,8.6,1.9,13.1,2.6c3.3,0.5,6.6,1,9.9,1.7C317.5,538.8,319.3,539.1,320.6,538.7z M33.5,508.1
				c-0.2,0.1-0.3,0.1-0.5,0.1c-2.1,0.5-3,0.1-5.1,0c-1.1-0.1-2.2,0.1-3.3,0c-0.6,0-1.2-0.2-1.8-0.2L33.5,508.1z"/>
		</g>
	</g>
	<path class="st5" d="M227.9,564.3c0-0.1-13.9,7.2-13.8,7.2h-36.8c0.1,0-13.8-7.3-13.8-7.2V409.9h64.4V564.3z"/>
	<rect x="251" y="409.9" class="st5" width="151.9" height="73.4"/>
	<rect x="287.6" y="480.1" class="st5" width="75.2" height="28.3"/>
	<path class="st5" d="M347.3,519.3c0,6.2-9.6,11.2-21.4,11.2l0,0c-11.8,0-21.4-5-21.4-11.2v-14.2h42.7V519.3z"/>
	<polygon class="st5" points="484.2,546.4 433.8,521.1 433.8,409.9 484.2,409.9 	"/>
	<rect x="386.9" y="409.9" class="st5" width="194.1" height="38.8"/>
	<rect x="493.5" y="409.9" class="st5" width="47.4" height="120.6"/>
	<rect x="505.3" y="530.5" class="st5" width="23.7" height="21.9"/>
	<rect x="27.1" y="409.9" class="st5" width="294" height="42.1"/>
	<rect x="96.6" y="451.5" class="st5" width="77.7" height="69.6"/>
	<rect x="-40.9" y="409.4" class="st5" width="68" height="141.4"/>
	<rect x="101.2" y="520.5" class="st5" width="64.4" height="4.3"/>
	<rect x="107.6" y="520.8" class="st5" width="60.8" height="11.6"/>
	<rect x="476.5" y="409.9" class="st5" width="23" height="76.9"/>
	<rect x="533.2" y="426.1" class="st5" width="47.3" height="76.9"/>
	<rect x="-78.4" y="409.4" class="st5" width="61.8" height="63.1"/>
</g>
</svg>
