<?xml version="1.0" encoding="utf-8"?>
<!-- Generator: Adobe Illustrator 21.0.2, SVG Export Plug-In . SVG Version: 6.00 Build 0)  -->
<svg version="1.1" xmlns="http://www.w3.org/2000/svg" xmlns:xlink="http://www.w3.org/1999/xlink" x="0px" y="0px"
	 viewBox="0 0 1280 741" style="enable-background:new 0 0 1280 741;" xml:space="preserve">
<style type="text/css">
	.st0{fill:#CC1800;}
	.st1{opacity:0.28;fill:#FFFFFF;}
	.st2{fill:#FBFEDF;}
	.st3{fill:#56100C;}
	.st4{fill:#141206;}
	.st5{fill:#13151E;}
	.st6{opacity:0.23;fill:#DEFFEC;}
	.st7{opacity:0.57;fill:#DEFFEC;}
	.st8{opacity:0.92;fill:#DEFFEC;}
	.st9{opacity:0.81;fill:#DEFFEC;}
	.st10{fill:none;stroke:#141206;stroke-width:2;stroke-linecap:round;stroke-miterlimit:10;}
	.st11{fill:#E8CC42;}
	.st12{fill:#EA5353;}
</style>
<g id="Layer_2">
	<rect class="st0" width="1280" height="741"/>
	<circle class="st1" cx="1001.5" cy="198.5" r="153.5"/>
	<circle class="st2" cx="1002" cy="198" r="121"/>
</g>
<g id="Layer_4">
	<rect x="606" y="251" class="st3" width="96" height="380"/>
	<rect x="701" y="350" class="st3" width="226" height="255"/>
	<rect x="485" y="408" class="st3" width="226" height="255"/>
	<rect x="176" y="413" class="st3" width="96" height="309"/>
	<rect x="281" y="203" class="st3" width="122" height="421"/>
	<rect x="294" y="156" class="st3" width="96" height="74"/>
	<rect x="1203" y="346" class="st3" width="77" height="255"/>
	<rect x="926" y="504" class="st3" width="77" height="135"/>
	<rect x="233" y="531" class="st3" width="77" height="58"/>
	<rect y="384" class="st3" width="77" height="135"/>
	<rect x="39" y="326.6" class="st3" width="35" height="61.4"/>
	<rect x="961" y="446.6" class="st3" width="35" height="61.4"/>
	<rect x="263" y="471.6" class="st3" width="35" height="61.4"/>
</g>
<g id="Layer_1">
	<g>
		<path class="st4" d="M617.1,0c-2,2.7-5.3,3.5-8.7,4.1c-9.2,1.5-19,4.7-28.2,5.1c-7,0.3-13.5,1.9-20.3,3.9c-7,2-14.6,3.5-20.6,7.2
			c-14.6,9-32.7,10.7-47.7,18.9c-7.3,3.9-13.8,9-21.3,12.7c-7,3.5-14.8,3.3-21.8,6.8c-6.6,3.3-13,6.4-19.8,9.7
			c-6.9,3.4-16.4,3.4-22.5,8.1c-3.5,2.7-1.7,4.3,2.8,4.6c5.7,0.3,11.9-2.5,17.3-3.8c7.5-1.8,15.4-3.8,23-5c3.4-0.5,4.6-0.5,6.3,2.2
			c0.8,1.2,0,2,1.2,3.2c1.6,1.6,4.5,1,6.6,1c3.7-0.1,7-1.5,10.7-1.8c3.8-0.3,7.5,0.6,11.2-0.3c7.7-1.7,13.9-5.1,21-8.2
			c2-0.8,4.2-1,6.1-1.9c1.9-0.9,3.3-2.5,5.2-3.5c1.4-0.7,3.2-1,4.7-1.4c2.6-0.9,5.1-2.5,7.7-3.3c2.9-0.9,6.3-1,9.3-1.8
			c5.8-1.5,9.2-2.8,14.2-6.3c4.7-3.3,10.1-6.6,15.9-7.6c1.5-0.3,3.5,0.1,4.8-0.2c1.8-0.5,2.8-2,4.6-2.4c0,3.6-5.4,5-7.9,6.2
			c-3.1,1.5-5.4,3.1-7.9,5.5c-2.6,2.6-5.2,5.2-7.8,7.9c-4.2,4.3-8.9,6.6-14.3,9.1c-5.8,2.8-12.1,4.2-18.1,6.7
			c-9.2,3.8-17.9,8.6-27.5,11.6c-7.8,2.5-15.8,4.3-23.7,6.6c-4.3,1.3-8.3,3-12.7,3.9c-4.1,0.9-7.1,0-11.1-0.2
			c-6.6-0.2-14.4-1-20.5,1.9c-2.7,1.3-5,3.2-7.8,4.4c-4.8,2-9.4,3-14.5,4c-6.2,1.3-12.1,3.1-18,5.4c-4.3,1.6-10.5,5.3-15.4,4.9
			c-2.8-0.2-4.8-2.1-7.1-3.4c-6-3.2-11.9-2.7-18.4-3.5c-5.4-0.7-11.2-0.7-16.4-2.1c-5.2-1.4-8.9-3.5-14.3-3.9
			c-3.7-0.3-7.5-1.8-11.2-1.4c-6.1,0.6-14.2,3.5-19.7,6c-2.9,1.3-7.6,4.8-8.4,8.1c-0.8,3.7,1.6,5.1-0.5,8.7
			c-3.7,6.2-13.7,9.2-20.1,11.8c-7.9,3.2-15.8,6.7-23.8,9.5c-8.2,2.9-15.9,7.4-24.2,10c-2.3,0.7-6.3,0.8-7,3.4
			c-1.3,4.7,5.6,5.5,8.4,5.5c5.4,0.2,10.5-1.2,15.8-1.6c6.3-0.5,11,1.1,16.6,4c6.4,3.3,11,1.6,17.8-0.6c9.4-3.1,18.7-6.5,28.2-9.4
			c15.4-4.7,29.8-16.9,46.6-16.6c-0.6,1.1-1.4,2.2-2.3,3.1c8.1-3,15.1-1.8,22.8,2.2c-3.1-0.7-6.1,1.3-8.9,2.3
			c-4.4,1.5-9,2.2-13.3,3.9c-8.3,3.1-16.4,5.5-25,6.7c-8.8,1.3-18.7,7.1-25.5,12.6c-4.5,3.7-9.6,6-14.4,9.1c-4,2.6-7.4,5.9-11.7,8
			c-8.6,4.3-16.8,4.1-26,2.2c-4.4-0.9-8.9-3.1-13.1-3.8c-2.8-0.4-5.1,1.4-7.9,1.6c-5.3,0.3-10.3-2-15.3-3.4c-6.8-2-13.3-2-20.3-0.7
			c-10.6,2.1-18.9,8.1-28,13.4c-9.8,5.7-21.8,7.5-32.4,11c-5.7,1.9-11.8,2.7-17.8,2.3c-7.2-0.5-12.9-3.9-19.7-5.7
			c-5.7-1.5-11-1-16.8-1.8c-4.1-0.6-7.3-1.5-11.5-0.9C32.3,207,19,211.7,4.5,213c-1.5,0.1-3,0.3-4.5,0.4v-43.2
			c5-3.4,10.2-6.7,14.6-10.9c2.4-2.2,5-5,7.7-6.8c2.5-1.7,5.5-2.5,8.6-3.1c3.5-1.9,6.2-2.9,9.3-5.5c1.8-1.5,3.1-2.5,5.5-3.2
			c1.9-0.6,4.7,0,6.4-0.6c2.3-0.9,4.3-3.5,6.2-5.1c3.5-3,6.3-6.2,10.3-8.4c5.4-3,9.3-7.3,12.6-12.6c3.3-5.2,4.4-10.6,6.6-16.2
			c2.3-5.8,4.9-9.9,11.4-9.8c6.5,0.1,11.1-2.5,15.1-7.8c2.7-3.6,6.6-13.1,11.9-11.6c2.7,0.8,5.3,3.4,7.9,4.6c3,1.4,6,3.3,9.3,3.8
			c5.2,0.8,10,2.2,15.4,1.2c11.5-2.2,22.7-5.3,33.9-8.7c5.3-1.6,10.8-2.3,16.2-3.4c3-0.6,5.7-0.3,8.6-1.6c3.6-1.6,7-3.6,10.3-5.6
			c5.9-3.7,13-6.7,19.8-8.4c4.1-1,8.4,0.3,12.5-0.2c1.8-0.2,2.5-1.1,4-1.5c2.2-0.5,4.6,0.2,6.9-0.3c4.1-0.8,7.6-2,11.9-1.3
			c4.6,0.8,8.7,2.9,13.4,3c6.4,0.2,11-1.3,17.1-2.8c4-1,8.3-2.8,12.2-3.4c5.9-0.9,8.7,4.1,10.9,8.6c6.6,13.2,21.7,10.6,33.8,12.3
			c12.8,1.7,26.5-4.9,36.4-12.4c3.1-2.3,6.4-4.5,9.3-7c2.1-1.8,3.9-4.6,6.2-5.9c2.2-1.3,5.1-1.4,7.5-2.2c4.4-1.5,9.4-3.3,13.4-5.6
			c1.5-0.8,2.9-2.6,4.4-3.2c2.5-1.1,5.6-0.8,8.3-1.8c7.2-2.7,13.6-4.8,21.3-5.6c20.3-2,39.6-9,58.8-15.6c6-2.1,12.1-2.7,17.7-5.4
			H617.1z"/>
	</g>
	<g>
		<path class="st4" d="M1277.4,37.4c0.4,0,0.7-0.1,1.1-0.1c-10.9,6-25.2,6.4-37.4,6.4c-11,0-22.1,0-33.1,0c-5.2,0-10.5,0.1-15.7,0
			c-6.3-0.1-12.1,2-18.2,3.3c-5.1,1.1-9.6,2.3-14.3,4.5c-3,1.4-4.5,3.1-7,4.9c-2.2,1.5-4.5,1.7-7,2.2c-2.8,0.6-5.8,0.3-8.7,1
			c-3.8,0.9-7.8,3.5-11.1,5.3c-2.7,1.4-5.2,3.5-8.2,4c-2.9,0.6-6.1-0.4-9.1,0.2c-3.5,0.8-7.2,0.7-10.8,1.5c-2.4,0.5-4.6,1.9-7,2.5
			c-5.4,1.3-9.7,1.5-15.2,1.8c-14.2,0.9-24.7,9-38,12.3c-2.2,0.6-4.1,0.2-6.3,0.3c-3.7,0.1-3.8,1.7-6.3,4.1
			c-3.7,3.6-8.2,4.1-11.9,7.8c-3.9,4-7.3,8.6-11.8,12c-3.2,2.4-9.4,2.9-13.4,3.1c-10.8,0.4-21.5,3-32.2,4.7
			c-8.1,1.3-15.8,2.8-23.8,4.7c-8,2-15.2,5.1-23,7.6c-2.7,0.8-5.4,1.3-7.8,2.8c-2.5,1.6-4.5,3.7-7.2,5.1c-6.5,3.4-13.8,5.1-20.8,6.9
			c-5.8,1.5-11.3,4.5-17,6.4c-2.3,0.8-4.8,2.2-7.2,2.6c-3.9,0.8-7.8,0.7-11.8,1.7c-6.6,1.7-10.5,2-15.6,6.3
			c-6.1,5.1-15.6,5.2-22.9,7.8c-13.4,4.8-23.4,15.7-37.1,19.9c-11.7,3.6-25.5,2.6-35.9,10.2c-2.7,2-5.8,4.1-8.3,6.3
			c-2.7,2.4-4.5,5.4-7.9,7c-3.6,1.7-7.9,2.1-11.8,3.3c-4,1.2-7.6,3-11.4,4.4c-6.4,2.4-13.9,2.2-20.5,0.8c-3.1-0.6-6.2-1.9-9.5-2.4
			c-7.2-1.2-14.9-0.3-22.2-0.4c-16-0.2-28.4,8.7-42.7,14.2c-8.4,3.2-16.6,5.1-25.3,6.7c-4.2,0.7-8.2,2.2-12.4,3
			c-3.2,0.6-6.4,1.7-9.3,3.1c2.9,0.1,5.4-1.2,8.2-1.7c3.9-0.7,7.9-1.2,11.8-2c4.7-0.9,9.5-1.6,14.3-2.4c6.2-1,12.5-2.4,18.8-3.2
			c10-1.3,19.9-2,30-1.9c4.2,0,8.3,0.2,12.4-0.7c5.1-1.2,9.3-2.5,14.6-2.5c7.6,0.1,14.8-1.8,22.3-1.6c4.9,0.2,9.6,0.9,14.6,0.5
			c8.6-0.8,16-3,24.3-4.9c7-1.6,13.8-3.4,20.6-5.4c4.7-1.4,5.8-1,10.3,0.5c3.5,1.1,7.9,0.7,11.5,0c3.6-0.8,5-1.1,8.6-0.4
			c3.5,0.6,7,0.3,10.6,0.3c4.7,0,9.2,1.3,13.9,0.6c6.4-1,11.1-4.5,16.2-8.1c3.9-2.8,6.7-2.9,11.2-3.7c5.8-1,11.6-3.5,17.4-4.9
			c4.6-1.2,4-1.3,7.5,1.3c4.4,3.2,11,1,15.9-0.1c14.5-3.3,26.9-13.2,37.8-23c4.2-3.7,8-8.8,12.5-12.1c6.3-4.6,13.4-3.9,20.5-5.4
			c11.7-2.5,23.1-7,35.1-8.8c6.6-1,13-1.9,19.4-4.3c9.5-3.4,19.9-4.9,29.9-5.9c6.4-0.6,12.9-1.7,19.2-2.9c2-0.4,4-0.8,5.7-2
			c1.9-1.3,1.8-2.5,3.4-3.9c4-3.6,13.3-3.1,18.6-4.4c12.3-3.1,24.9-3.8,37.2-7.2c7-1.9,13.7-4.8,20.6-7c7-2.2,13.9-3.5,20.5-6.6
			c1.9-0.9,5.5-2.1,6.8-3.8c2.1-2.8-0.6-5.7,0.9-8.7c17.1-4.9,36.1-1.4,53.1,2.3c9.1,1.9,18,5,27.4,5.2c4.4,0.1,8.8-0.4,13.2-0.2
			c4.7,0.3,9,1.6,13.8,1.7c3.2,0.1,7.4,0.7,10.4-0.3c4.2-1.4,6.4-5.3,8.6-8.8c2.6-4,5.5-7.7,6.4-12.6c0.7-3.5,0.2-7.1,0.2-10.7
			c0-3.2,0.2-6.3-0.4-9.5c-0.8-4.4,0.1-8.5-0.7-13c-0.8-2.2-1.2-4.4-1.4-6.7c0.5-2,0.7-3.9,0.5-6c-0.3-2.4-2.7-6,1.9-6.6"/>
	</g>
	<g>
		<path class="st4" d="M1151.2,144.7c-7.2,0-13.4,0-20.2,2.8c-3.2,1.3-6.5,2.1-9.7,3.4c-4.7,2-7.5,4.7-12.7,4.9
			c-13.8,0.4-27.4,2.1-41,5.1c-3.4,0.7-6.6,2-9.8,3.2c-1.5,0.5-3,0.6-4.5,1.1c-2.4,0.8-2.7,1.9-5,3.3c-4.1,2.5-9.3,1.5-13.9,1.5
			c-3.9,0-7.9,0-11.8,0c-8.7,0-17.4,0-26.1,0c-6.1,0-15.3-1.9-20,2.8c4.3,1.2,9.9,0.3,14.5,0.3c5.8,0,11.5,0,17.3,0
			c6.2-0.1,11.9,1.7,18.2,1.6c6.6-0.1,12.7,1.6,19.2,1.6c10.2-0.1,20.3,0,30.5,0c6,0,11.2-0.2,16.6-3.2c1.9-1.1,3.6-2.6,5.3-3.9
			c3-2.3,4.9-2.5,8.8-2.4c3.4,0.1,6.3,0.1,9.5-0.7c2.1-0.6,3.4-1,5.6-0.7c2.9,0.5,5.4,1.5,8.5,1.5c3.5,0.1,6.3-0.9,9.7-1.5
			c3.1-0.6,6.5-0.2,9.7-0.1c2.2,0,7.2,1.1,9-0.2c4.3-2.9-3.6-10.2,3.2-13.8c3.9-2.1,9.2-1.3,13.4-1.9c5-0.8,9.2-1.8,14.4-1.5
			c4.7,0.3,9.8,2,14.5,2.9c2.3,0.4,4.4,0.2,6.7,0.3c3,0.1,5.2,1.2,8.1,1.7c5.5,1,9.7,0.5,12,6.5c1,2.7-0.4,4.7,1.9,7
			c2.6,2.6,6.9,2.2,10.2,3c4.9,1.2,7.8,3,11.9,5.6c3.5,2.2,10.7,3.1,13.7-0.5c-3.5-2.8-10.9-4.4-15.2-5.8c-2.8-0.9-5.5-1.9-8-3.6
			c-1.4-1-2.4-1.9-3.9-2.6c-1.1-0.5-2-0.2-3-1c-0.6-0.5-5-7.6-5.1-8.7c-0.3-3,2-5.1,0.1-8.5c-3.5-6.2-10.8-10.3-17.5-11.8
			c-5.5-1.3-11.1-3-16.7-3.4c-3-0.2-6.1,0.5-9.1-0.1c-4-0.8-7.1-1.5-11.4-1.4c-8.1,0-16.3-0.2-24.1,1.5c-3.3,0.7-4.9,2.8-5.6,6
			c-0.6,2.6-1.3,5.3-1.8,8c-0.4,0.1-0.8,0.2-1.3,0.3"/>
	</g>
	<g>
		<g>
			<path class="st4" d="M766.6,264.4c-6.3,2.7-12.7,4.4-19.2,6.4c-8.7,2.8-17,6.6-25.5,9.8c-6.7,2.5-13.3,5.7-20.2,7.6
				c-4.4,1.2-8.5,1.8-12.6,3.8c-4.2,2.1-8.3,3.9-12.9,5.1c-7.9,2.2-15.7,4.6-23.4,7.4c-6.6,2.3-14.6,5.4-21.7,3.8
				c-5.6-1.3-10.2-3.8-16.2-2.5c-8.9,2-17.8,4.6-26.8,5.9c-5.7,0.8-11.9,0.1-17.7,0.1c-8.6,0-15.5,1.6-23.9,3.8
				c-8.5,2.2-17.5,4.2-26.3,4.2c-4,0-7.3-1.5-11.2-1.7c-5-0.3-10.1,0.1-15.1,0c-11.8-0.1-23.3,4.1-35.2,4.1c-10,0-20-2.6-29.9-2.5
				c-5.2,0.1-10.6-0.5-15.7,0.3c-5.8,1-11.6,3.8-17.1,6.1c-8.5,3.6-17.2,7.2-25.5,11c-7.9,3.6-16.4,6.1-24.8,8.3
				c-5.6,1.5-11.4,2.2-17.1,3.2c-7.4,1.2-15,3.5-22.5,4.1c-7.5,0.7-20.9-1.4-24.6-9c-1.5-3,0.4-6.3,1.8-9.3c1.5-3.4,6.6-6.5,6.8-10
				c-3.4-3.1-7.2-0.1-8-6.1c-0.5-3.6,0.4-8.1,1.9-11.4c4.9-10.9,18.2-18.6,18.8-31.3c0.3-5.7-2.4-7.6-7.9-7.9
				c-7.4-0.3-14.9,0.5-22.3,0.2c-6-0.2-11.4-2.7-17.3-3.3c-6.1-0.6-11.4,1.3-17.4,1.7c-11.4,0.8-21.5-4.3-32.7-4.9
				c-4.9-0.2-9.3,1.6-14.2,1.7c-6.4,0.2-12.7-1.1-19.1-0.5c-16.8,1.6-33.3,2.1-50.2,2.1c-7.2,0-13.9,0.2-21,2
				c-4.7,1.2-10.4,2.1-15.2,0.9c-4.6-1.2-9.5-3.9-13.7-6c-6.2-3.1-12.9-5.4-19.4-8c-13.4-5.2-28.3-5.6-42-10.2
				c-2.8-0.9-7.7-3.9-10.6-3.7v4.2c1,0.8,2.2,1.4,2.9,1.8c9.1,4.6,17.6,10.4,26.4,15.5c8.7,5.1,17.9,9.9,26,15.7
				c2.6,1.9,5.8,3.5,7.2,6.7c0.9,1.9,0.1,3.3,0.5,5.2c1.3,7.8,11.9,9.2,18.6,10.3c5.9,1,12.2,2.1,18.2,1.6c3.7-0.3,7.1-1.2,10.8-1.4
				c12.6-0.6,24.8,1,37.2,2.8c8,1.2,16.1,2.5,24.1,4c8.5,1.6,16.9,1.1,25.6,1.2c7.3,0,14.1-1.4,21.3-1.7c3.3-0.1,10.4-1.2,12.7,1.4
				c1,1.1,0.8,3.5,1.8,4.7c2.1,2.4,5.5,4.2,7.8,6.6c2.1,2,3.8,3.5,6.5,4.5c2,0.8,5.5,0.7,6.9,2.7c3.2,4.3-2.3,6.1-5.1,8.4
				c-2.8,2.4-4.5,5.6-7.2,8.1c-2.5,2.3-3.5,3.1-4.7,6.2c-1.1,2.7-1.1,5.5-2.8,8c-2.2,3.2-6,4.7-9.3,6.3c-5,2.5-9.8,4-15.4,4.7
				c-5.5,0.7-10.7,2.7-16.1,4.2c-3.6,1-10.3,3-12.2,6.5c0.3,0.1,0.7,0.2,1,0.3l-44,1.6c2.1,2.7,5.1,1.2,7.9,1.5c3.9,0.5,6.9,0,11,0
				c6.3,0,12.7-0.5,18.9,0.4c8.8,1.2,17.6,2,26.5,0.9c13.4-1.7,27-2.7,40.5-2.8c5.3,0,9.9,0.5,15.1,1.4c3.2,0.5,6.6,1.2,9.8,1.5
				c4,0.4,7.1-1.2,11-1.4c3.3-0.2,6.6,0.3,9.9,0c3.4-0.3,6.5-1.4,9.9-1.5c5.3-0.2,10.9,0.8,16.1,0.2c4.5-0.5,8.9-1.3,13.3-1.8
				c5.4-0.7,11.2-0.8,16.5-1.8c8.8-1.7,18.3-2.9,26.9-5.5c7.7-2.3,15.7-7.1,23.6-8.4c8-1.4,17.6-1.3,25.2-4.5
				c13.9-5.8,27.5-10.4,42.3-13.2c12.9-2.5,25.8-3.4,38.8-5c15.2-1.9,30.2-7.2,45.5-7.1c4.2,0,9.5-0.9,13.5,0.3
				c3.5,1.1,5.6,2.5,9.5,2.8c4.4,0.4,8.4,1.7,12.8,1.6c7.2-0.1,14.5-0.1,21.7,0c9,0.1,16.9-3.1,25.8-4.4c6.1-1,12.1-2,18.2-3.5
				c4.7-1.1,8.9-1.1,13.6-1.5c6-0.5,8.8-3.2,13.4-6.4c4-2.8,7.6-5.9,11.5-8.8c6.5-4.8,13.8-8.6,20.6-13c8.6-5.6,17.7-10.9,26.8-15.7
				c5.2-2.8,10.3-5.7,15.6-7.8c5.1-2,9-5.3,14.3-6.8c4.1-1.2,7-3.7,10.6-6C772.7,262,769.2,263.3,766.6,264.4z M196.8,377.5
				c1.1-0.3,2.2-0.8,3.4-0.9c2.1-0.4,4.2,0.2,6.4,0c4.1-0.4,5.9-1.9,10-0.1c0.3,0.1,0.6,0.2,0.9,0.4L196.8,377.5z"/>
		</g>
	</g>
	<path class="st5" d="M595,741H470V168.8c0,0.2,27-26.8,26.8-26.8h71.4c-0.2,0,26.8,27,26.8,26.8V741z"/>
	<rect x="640" y="469" class="st5" width="295" height="272"/>
	<rect x="711" y="376" class="st5" width="146" height="105"/>
	<path class="st5" d="M827,388h-83v-52.5c0-22.9,18.6-41.5,41.5-41.5h0c22.9,0,41.5,18.6,41.5,41.5V388z"/>
	<polygon class="st5" points="1093,741 995,741 995,329 1093,235 	"/>
	<rect x="904" y="597" class="st5" width="377" height="144"/>
	<rect x="1111" y="294" class="st5" width="92" height="447"/>
	<rect x="1134" y="213" class="st5" width="46" height="81"/>
	<rect x="205" y="585" class="st5" width="571" height="156"/>
	<rect x="340" y="329" class="st5" width="151" height="258"/>
	<rect x="73" y="219" class="st5" width="132" height="524"/>
	<rect x="349" y="315" class="st5" width="125" height="16"/>
	<rect x="361.4" y="287" class="st5" width="118.2" height="43"/>
	<rect x="1093" y="456" class="st5" width="18" height="285"/>
	<rect y="509" class="st5" width="120" height="234"/>
</g>
<g id="Layer_3">
	<rect x="486" y="172" class="st6" width="5" height="241"/>
	<rect x="497" y="172" class="st6" width="5" height="241"/>
	<rect x="508" y="172" class="st6" width="5" height="241"/>
	<rect x="519" y="172" class="st6" width="5" height="241"/>
	<rect x="530" y="172" class="st6" width="5" height="241"/>
	<rect x="541" y="172" class="st6" width="5" height="241"/>
	<rect x="552" y="172" class="st6" width="5" height="241"/>
	<rect x="563" y="172" class="st6" width="5" height="241"/>
	<rect x="574" y="172" class="st6" width="5" height="241"/>
	<rect x="365" y="387" class="st7" width="5" height="159"/>
	<rect x="376" y="387" class="st7" width="5" height="159"/>
	<rect x="387" y="387" class="st7" width="5" height="159"/>
	<rect x="398" y="387" class="st7" width="5" height="159"/>
	<rect x="409" y="387" class="st7" width="5" height="159"/>
	<rect x="420" y="387" class="st7" width="5" height="159"/>
	<rect x="431" y="387" class="st7" width="5" height="159"/>
	<rect x="442" y="387" class="st7" width="5" height="159"/>
	<rect x="453" y="387" class="st7" width="5" height="159"/>
	<path class="st8" d="M730.7,458h-7.1v-56.5c0-2,1.6-3.5,3.5-3.5l0,0c2,0,3.5,1.6,3.5,3.5V458z"/>
	<path class="st8" d="M750,458h-7.1v-56.5c0-2,1.6-3.5,3.5-3.5l0,0c2,0,3.5,1.6,3.5,3.5V458z"/>
	<path class="st8" d="M769.3,458h-7.1v-56.5c0-2,1.6-3.5,3.5-3.5h0c2,0,3.5,1.6,3.5,3.5V458z"/>
	<path class="st8" d="M788.5,458h-7.1v-56.5c0-2,1.6-3.5,3.5-3.5l0,0c2,0,3.5,1.6,3.5,3.5V458z"/>
	<path class="st8" d="M807.8,458h-7.1v-56.5c0-2,1.6-3.5,3.5-3.5h0c2,0,3.5,1.6,3.5,3.5V458z"/>
	<path class="st8" d="M827.1,458H820v-56.5c0-2,1.6-3.5,3.5-3.5l0,0c2,0,3.5,1.6,3.5,3.5V458z"/>
	<path class="st8" d="M846.4,458h-7.1v-56.5c0-2,1.6-3.5,3.5-3.5l0,0c2,0,3.5,1.6,3.5,3.5V458z"/>
	<path class="st7" d="M671,569h-14v-71.5c0-2,1.6-3.5,3.5-3.5h6.9c2,0,3.5,1.6,3.5,3.5V569z"/>
	<path class="st7" d="M701.7,569h-14v-71.5c0-2,1.6-3.5,3.5-3.5h6.9c2,0,3.5,1.6,3.5,3.5V569z"/>
	<path class="st7" d="M732.5,569h-14v-71.5c0-2,1.6-3.5,3.5-3.5h6.9c2,0,3.5,1.6,3.5,3.5V569z"/>
	<path class="st7" d="M763.2,569h-14v-71.5c0-2,1.6-3.5,3.5-3.5h6.9c2,0,3.5,1.6,3.5,3.5V569z"/>
	<path class="st7" d="M794,569h-14v-71.5c0-2,1.6-3.5,3.5-3.5h6.9c2,0,3.5,1.6,3.5,3.5V569z"/>
	<path class="st7" d="M824.7,569h-14v-71.5c0-2,1.6-3.5,3.5-3.5h6.9c2,0,3.5,1.6,3.5,3.5V569z"/>
	<path class="st7" d="M855.5,569h-14v-71.5c0-2,1.6-3.5,3.5-3.5h6.9c2,0,3.5,1.6,3.5,3.5V569z"/>
	<path class="st7" d="M886.2,569h-14v-71.5c0-2,1.6-3.5,3.5-3.5h6.9c2,0,3.5,1.6,3.5,3.5V569z"/>
	<path class="st7" d="M917,569h-14v-71.5c0-2,1.6-3.5,3.5-3.5h6.9c2,0,3.5,1.6,3.5,3.5V569z"/>
	<rect x="365" y="365" class="st7" width="5" height="11"/>
	<rect x="376" y="365" class="st7" width="5" height="11"/>
	<rect x="387" y="365" class="st7" width="5" height="11"/>
	<rect x="398" y="365" class="st7" width="5" height="11"/>
	<rect x="409" y="365" class="st7" width="5" height="11"/>
	<rect x="420" y="365" class="st7" width="5" height="11"/>
	<rect x="431" y="365" class="st7" width="5" height="11"/>
	<rect x="442" y="365" class="st7" width="5" height="11"/>
	<rect x="453" y="365" class="st7" width="5" height="11"/>
	<rect x="165" y="273" class="st9" width="5" height="6"/>
	<rect x="176" y="273" class="st9" width="5" height="6"/>
	<rect x="89" y="349" class="st9" width="5" height="6"/>
	<rect x="143" y="418" class="st9" width="5" height="6"/>
	<rect x="376" y="321" class="st7" width="5" height="6"/>
	<rect x="387" y="321" class="st7" width="5" height="6"/>
	<rect x="398" y="321" class="st7" width="5" height="6"/>
	<rect x="409" y="321" class="st7" width="5" height="6"/>
	<rect x="750" y="354" class="st7" width="9.2" height="6"/>
	<rect x="770.3" y="354" class="st7" width="9.2" height="6"/>
	<rect x="790.5" y="354" class="st7" width="9.2" height="6"/>
	<rect x="810.8" y="354" class="st7" width="9.2" height="6"/>
	<rect x="420" y="321" class="st7" width="5" height="6"/>
	<rect x="431" y="321" class="st7" width="5" height="6"/>
	<rect x="442" y="321" class="st7" width="5" height="6"/>
	<rect x="453" y="321" class="st7" width="5" height="6"/>
	<rect x="174" y="317" class="st9" width="5" height="6"/>
	<rect x="152" y="317" class="st9" width="5" height="6"/>
	<rect x="144" y="317" class="st9" width="5" height="6"/>
	<rect x="1047.5" y="425.5" transform="matrix(6.123234e-17 -1 1 6.123234e-17 621.5 1478.5)" class="st9" width="5" height="6"/>
	<rect x="1015.5" y="340.5" transform="matrix(6.123234e-17 -1 1 6.123234e-17 674.5 1361.5)" class="st9" width="5" height="6"/>
	<rect x="1015.5" y="362.5" transform="matrix(6.123234e-17 -1 1 6.123234e-17 652.5 1383.5)" class="st9" width="5" height="6"/>
	<rect x="1015.5" y="370.5" transform="matrix(6.123234e-17 -1 1 6.123234e-17 644.5 1391.5)" class="st9" width="5" height="6"/>
	
		<rect x="1037.5" y="395.5" transform="matrix(-1.836970e-16 1 -1 -1.836970e-16 1438.5 -641.5)" class="st9" width="5" height="6"/>
	
		<rect x="1069.5" y="392.5" transform="matrix(-1.836970e-16 1 -1 -1.836970e-16 1467.5 -676.5)" class="st9" width="5" height="6"/>
	
		<rect x="1069.5" y="326.5" transform="matrix(-1.836970e-16 1 -1 -1.836970e-16 1401.5 -742.5)" class="st9" width="5" height="6"/>
	
		<rect x="1069.5" y="318.5" transform="matrix(-1.836970e-16 1 -1 -1.836970e-16 1393.5 -750.5)" class="st9" width="5" height="6"/>
	<line class="st10" x1="1058" y1="220" x2="1058" y2="272"/>
	<line class="st10" x1="785" y1="286" x2="785" y2="298"/>
	<line class="st10" x1="505" y1="131" x2="505" y2="147"/>
	<line class="st10" x1="560" y1="131" x2="560" y2="147"/>
	<circle class="st11" cx="505" cy="130" r="3"/>
	<circle class="st11" cx="560" cy="130" r="3"/>
	<circle class="st12" cx="1058" cy="218" r="3"/>
</g>
</svg>
