<?xml version="1.0" encoding="utf-8"?>
<!-- Generator: Adobe Illustrator 21.1.0, SVG Export Plug-In . SVG Version: 6.00 Build 0)  -->
<svg version="1.1" id="Layer_1" xmlns="http://www.w3.org/2000/svg" xmlns:xlink="http://www.w3.org/1999/xlink" x="0px" y="0px"
	 viewBox="0 0 612.8 612.8" style="enable-background:new 0 0 612.8 612.8;" xml:space="preserve">
<style type="text/css">
	.st0{fill:#88A36D;}
	.st1{fill:#4D7F4D;}
	.st2{fill:#1A4E27;}
	.st3{fill:#E9BEB1;}
	.st4{fill:#8B1559;}
	.st5{fill:#AA334D;}
	.st6{fill:#FFD5C6;}
	.st7{fill:#C39F96;}
	.st8{fill:#BF272D;}
	.st9{fill:#2A2B2A;}
	.st10{fill:#231F20;}
</style>
<g>
	<circle class="st0" cx="306.4" cy="306.4" r="250.1"/>
	<g>
		<path class="st1" d="M294.6,526.2l4.5,2.8l-2.9-1.5h0l-79.2-41h0l0,0l-1.7-0.9c0,0,0,0,0,0l-3.8-2c0.3-0.9,0.7-1.9,1.1-2.9
			c0.1-0.2,0.2-0.4,0.3-0.7c0.2-0.5,0.5-1.1,0.7-1.7c0.1-0.1,0.1-0.3,0.2-0.4c0.1-0.1,0.1-0.3,0.2-0.4h0L294.6,526.2z"/>
		<path class="st1" d="M402.4,418.3c-0.3,0-0.7-0.1-1-0.1c-0.3,0-0.5-0.1-0.8-0.1C401.2,418.2,401.8,418.2,402.4,418.3z"/>
		<polygon class="st2" points="303.5,531.6 303.5,531.6 298.1,528.8 298,528.8 293.5,526 293,525.7 296.2,527.4 296.2,527.4 
			299.2,528.9 299.3,529 		"/>
		<path class="st2" d="M294.6,526.2l4.5,2.8l-2.9-1.5h0l-79.2-41h0l0,0l-1.7-0.9c0,0,0,0,0,0l-3.8-2c0.3-0.9,0.7-1.9,1.1-2.9
			c0.1-0.2,0.2-0.4,0.3-0.7c0.2-0.5,0.5-1.1,0.7-1.7c0.1-0.1,0.1-0.3,0.2-0.4c0.1-0.1,0.1-0.3,0.2-0.4h0L294.6,526.2z"/>
		<path class="st3" d="M198.4,421.3c-0.2,0-0.4,0-0.5,0v0C198.1,421.2,198.3,421.2,198.4,421.3z"/>
		<path class="st3" d="M202.5,444.3c-0.4-1.4-0.8-2.8-1.2-4.2c-0.1-0.4-0.2-0.7-0.3-1.1c-0.1-0.4-0.2-0.9-0.3-1.3c0-0.1,0-0.1,0-0.2
			c0,0.1,0,0.1,0.1,0.2c0.1,0.4,0.2,0.9,0.3,1.3c0.1,0.4,0.2,0.7,0.3,1.1C201.6,441.5,202,442.9,202.5,444.3z"/>
		<path class="st3" d="M211.8,466.1c-0.4-0.6-0.7-1.3-1.1-1.9c-0.4-0.8-0.8-1.6-1.2-2.3c-0.2-0.5-0.5-1-0.7-1.5
			c0.2,0.5,0.5,1,0.7,1.5c0.4,0.8,0.8,1.6,1.2,2.3C211.1,464.9,211.4,465.5,211.8,466.1z"/>
		<path class="st3" d="M294.6,324.9v8c-4.7-1.4-9.4-4.2-14.2-8.7c0,0,0,0,0,0L294.6,324.9z"/>
		<path class="st3" d="M294.6,459.8v60.5l-71.6-37.5h0l0,0c-0.4-0.5-0.8-0.9-1.2-1.4c-0.8-1-1.5-1.9-2.2-2.9c-0.4-0.5-0.7-1-1.1-1.5
			c-0.7-0.9-1.3-1.8-1.9-2.8c0.1-0.2,0.3-0.5,0.4-0.7c0.6-0.9,1.2-1.8,1.8-2.6c0.2-0.3,0.4-0.5,0.6-0.8c0.2-0.3,0.4-0.5,0.7-0.8
			c0.2-0.2,0.4-0.5,0.7-0.8c0.2-0.2,0.5-0.5,0.7-0.7c0.2-0.2,0.5-0.5,0.7-0.7c0.2-0.2,0.5-0.4,0.7-0.6c0.2-0.2,0.5-0.4,0.8-0.6
			c0,0,0,0,0,0c0.2-0.2,0.5-0.4,0.8-0.5c0.3-0.2,0.6-0.4,1-0.6c0.2-0.1,0.4-0.2,0.6-0.3c0,0,0.1,0,0.1,0c0.2-0.1,0.5-0.2,0.7-0.3
			c0.1,0,0.1-0.1,0.2-0.1c0.2-0.1,0.4-0.2,0.6-0.2c0.1,0,0.1-0.1,0.2-0.1c0.2-0.1,0.5-0.2,0.8-0.2c0.3-0.1,0.5-0.1,0.8-0.2
			c0,0,0.1,0,0.1,0c0.3,0,0.6-0.1,0.9-0.1c0.3,0,0.6,0,0.9,0c3.5,0,7.3,1.6,11.4,5.7c21.4,21,2-29.6,6.1-41.9
			c0,0,10.2-3.7,18.4,14.8c0.1,0.3,0.3,0.6,0.4,0.9c0.1,0.1,0.1,0.3,0.2,0.4c0.5,1,1.1,1.9,1.8,2.8c0.1,0.2,0.2,0.3,0.3,0.4
			c0.6,0.7,1.2,1.3,1.8,1.9c0.1,0.1,0.2,0.2,0.3,0.2c0.1,0.1,0.2,0.2,0.3,0.2c0.2,0.2,0.4,0.3,0.7,0.5c0.1,0.1,0.2,0.2,0.3,0.2
			c0.1,0.1,0.2,0.2,0.3,0.2c0.5,0.4,1.1,0.7,1.6,1.1c0.4,0.2,0.7,0.4,1.1,0.7c0.3,0.2,0.7,0.4,1.1,0.6c0.3,0.2,0.7,0.3,1,0.5
			c0.3,0.2,0.7,0.3,1,0.5c0.5,0.2,1,0.5,1.6,0.7c0.1,0.1,0.2,0.1,0.3,0.1c0.4,0.2,0.8,0.4,1.3,0.5c3.1,1.3,6.2,2.5,9.1,4.1
			c0.4,0.2,0.8,0.4,1.2,0.6c0.2,0.1,0.5,0.3,0.7,0.4c0.1,0.1,0.3,0.2,0.4,0.3C294.3,459.6,294.5,459.7,294.6,459.8z"/>
		<path d="M287.8,264.4c0,0-4.2,0.3-9.3,0.7c-12.7,0.8-25.3-3.7-34.4-12.6c-1.4-1.4-2.3-2.4-2.1-2.7c0.2-0.5,1.7-0.5,4-0.2
			c-1.9-1.2-2.9-2.2-2.6-2.6c0.8-1.3,11.5,1.6,23.7,6.5C278.5,257.9,287.8,264.4,287.8,264.4z"/>
		<path d="M306,158V360c-0.1,0-0.2,0-0.3,0v-26.2c-3.6,0.5-7.3,0.2-11-0.9c-4.7-1.4-9.4-4.2-14.2-8.7l0,0h0l14.2,0.7l10.5,0.5
			l0.5-0.2v-17.3l-4.2-2.7l-4.9-3.2h9.1V158.8c-11.2,3.5-24.4,11.4-39.7,26.3c1.1-1,2.1-2,3.1-3c1.2-1.2,2.5-2.3,3.7-3.4
			c0.4-0.4,0.8-0.7,1.2-1.1c0.4-0.3,0.8-0.7,1.2-1c1.6-1.4,3.2-2.7,4.7-3.9c0.8-0.6,1.5-1.2,2.3-1.7c0.4-0.3,0.8-0.6,1.2-0.9
			c0.8-0.5,1.5-1.1,2.2-1.6c0.7-0.5,1.5-1,2.2-1.5c0,0,0.1,0,0.1-0.1c1.1-0.7,2.1-1.3,3.1-2c0.7-0.4,1.4-0.8,2.1-1.2
			c0.7-0.4,1.4-0.8,2.1-1.1c1-0.5,2.1-1,3.1-1.5c0.7-0.3,1.3-0.6,2-0.9c0.3-0.1,0.7-0.3,1-0.4c1-0.4,1.9-0.8,2.9-1.1
			C304.7,158.5,305.3,158.2,306,158z"/>
		<path class="st4" d="M370.3,140c-0.1,0.1-0.2,0.1-0.2,0.1c-5.3-9.1-10.8-16.7-16.4-23C359.8,123.7,365.3,131.4,370.3,140z"/>
		<path class="st5" d="M287.8,264.4c0,0-4.2,0.3-9.3,0.7c-12.7,0.8-25.3-3.7-34.4-12.6c-1.4-1.4-2.3-2.4-2.1-2.7
			c0.2-0.5,1.7-0.5,4-0.2c-1.9-1.2-2.9-2.2-2.6-2.6c0.8-1.3,11.5,1.6,23.7,6.5C278.5,257.9,287.8,264.4,287.8,264.4z"/>
		<path class="st5" d="M280.4,324.2L280.4,324.2C280.4,324.2,280.5,324.2,280.4,324.2L280.4,324.2z M416.3,163.6
			c-15.3-45.9-45.2-32.4-48-31c-0.1,0.1-0.2,0.1-0.2,0.1c-5.3-9.1-10.8-16.7-16.5-23c-11.3-12-24.3-21.8-38.9-25.5
			c-35.9-6.9-71,23.2-90.8,43.8c-27.7,40.7-39,98.1-39,122c0,3.6,0.2,7.2,0.1,10.8c-1.5,42.4-12.8,85.6-10.3,93
			c10.6,31.8,35.8,51.8,59.8,63.7c27.9-8.2,41.9-29.9,46.3-66.6c0.1-0.5,0.1-1.1,0.2-1.6c-9.5-6.8-18.3-15.9-25.2-24.4
			c-0.5-0.6-0.9-1.2-1.4-1.8c-0.6-0.8-1.3-1.6-1.9-2.4c-0.5-0.7-1-1.3-1.5-2c-0.8-1-1.5-2-2.1-3c-0.2-0.3-0.4-0.6-0.6-0.8
			c0-0.1-0.1-0.1-0.1-0.1c-0.3-0.5-0.7-1-1-1.5c-1.3-1.9-2.4-3.7-3.4-5.3c-3.7-6.2-12.2-43.5-14.5-75.3c0.7-1,1.3-1.9,2-2.9
			c0.6-0.9,1.3-1.9,1.9-2.8c0.7-1,1.4-2.1,2.2-3.1c1.5-2.1,3-4.1,4.5-6.1c0.5-0.7,1-1.3,1.5-2c1-1.3,1.9-2.6,2.9-3.8
			c1-1.2,1.9-2.5,2.9-3.7c0.5-0.6,0.9-1.2,1.4-1.8c1.4-1.8,2.8-3.5,4.2-5.2c1.4-1.6,2.7-3.2,4-4.7c0.9-1,1.8-2,2.7-3
			c0.9-1,1.8-1.9,2.6-2.9c0.9-0.9,1.7-1.8,2.6-2.7c0.4-0.4,0.9-0.9,1.3-1.3c0.4-0.4,0.9-0.9,1.3-1.3c0,0,0.1-0.1,0.1-0.1
			c0.2-0.2,0.4-0.4,0.6-0.6c15.3-14.9,28.5-22.8,39.7-26.3V302h-9.1l4.9,3.2l4.2,2.7v17.3l-0.5,0.2l-10.5-0.5l-14.2-0.7h0l0,0
			c4.8,4.4,9.5,7.2,14.2,8.7c3.7,1.1,7.4,1.4,11,0.9V360c0.1,0,0.2,0,0.3,0c0.1,0,0.2,0,0.3,0c0.3,0,0.6,0,0.9,0c0.4,0,0.8,0,1.2,0
			c11.4-0.6,23.1-7.7,33.5-16.8c2.8,34.5,12.9,57,33.4,68.6c27-13.3,50-34.6,62.7-69.1C443.4,328.1,428.6,199.4,416.3,163.6z
			 M280.4,324.2L280.4,324.2C280.4,324.2,280.5,324.2,280.4,324.2L280.4,324.2z"/>
		<g>
			<path class="st3" d="M223.1,482.9C223.1,482.9,223.1,482.9,223.1,482.9C223.1,482.9,223.1,482.9,223.1,482.9
				C223.1,482.9,223.1,482.9,223.1,482.9z"/>
			<path class="st3" d="M216.7,474.2L216.7,474.2c-0.1-0.1-0.2-0.3-0.3-0.4C216.5,473.9,216.6,474.1,216.7,474.2z"/>
			<path class="st3" d="M341.1,321c0,7.9,0.3,15.2,0.8,22.1c-10.4,9.1-22.1,16.2-33.5,16.8c-0.4,0-0.8,0-1.2,0c-0.3,0-0.6,0-0.9,0
				c-0.1,0-0.2,0-0.3,0c-0.1,0-0.2,0-0.3,0v-26.2c-3.6,0.5-7.3,0.2-11-0.9c-4.7-1.4-9.4-4.2-14.2-8.7c0,0,0,0,0,0l14.2,0.7l10.5,0.5
				l0.5-0.2v-17.3l-4.2-2.7l-4.9-3.2h9.1v-6.2c0.1,0,0.2,0,0.3,0c1.5-0.1,3-0.1,4.5-0.1h0.5c10.7,0,21.1,1.5,30.9,4.3
				C341.3,306.9,341.1,314,341.1,321z"/>
			<path class="st3" d="M406.6,471.4c-2.5,4-5.2,7.8-8.2,11.4l-79.3,41.6c-2.7,0.2-5.4,0.3-8.2,0.3h-0.5c-0.8,0-1.5,0-2.2,0
				c-0.4,0-0.7,0-1.1,0c-0.7,0-1.4,0-2-0.1H305c-0.7,0-1.5-0.1-2.2-0.1l-0.4,0h0l-7.7-4l-71.6-37.5l0,0c0,0,0,0,0,0l0,0
				c-0.4-0.5-0.8-0.9-1.2-1.4c-0.8-1-1.5-1.9-2.2-2.9c-0.4-0.5-0.7-1-1.1-1.5c-0.7-0.9-1.3-1.8-1.9-2.8c0.1-0.2,0.3-0.5,0.4-0.7
				c0.6-0.9,1.2-1.8,1.8-2.6c0.2-0.3,0.4-0.5,0.6-0.8c0.2-0.3,0.4-0.5,0.7-0.8c0.2-0.2,0.4-0.5,0.7-0.8c0.2-0.2,0.5-0.5,0.7-0.7
				c0.2-0.2,0.5-0.5,0.7-0.7c0.2-0.2,0.5-0.4,0.7-0.6c0.2-0.2,0.5-0.4,0.8-0.6c0,0,0,0,0,0c0.2-0.2,0.5-0.4,0.8-0.5
				c0.3-0.2,0.6-0.4,1-0.6c0.2-0.1,0.4-0.2,0.6-0.3c0,0,0.1,0,0.1,0c0.2-0.1,0.5-0.2,0.7-0.3c0.1,0,0.1-0.1,0.2-0.1
				c0.2-0.1,0.4-0.2,0.6-0.2c0.1,0,0.1-0.1,0.2-0.1c0.2-0.1,0.5-0.2,0.8-0.2c0.3-0.1,0.5-0.1,0.8-0.2c0,0,0.1,0,0.1,0
				c0.3,0,0.6-0.1,0.9-0.1c0.3,0,0.6,0,0.9,0c3.5,0,7.3,1.6,11.4,5.7c21.4,21,2-29.6,6.1-41.9c0,0,10.2-3.7,18.4,14.8
				c0.1,0.3,0.3,0.6,0.4,0.9c0.1,0.1,0.1,0.3,0.2,0.4c0.5,1,1.1,1.9,1.8,2.8c0.1,0.2,0.2,0.3,0.3,0.4c0.6,0.7,1.2,1.3,1.8,1.9
				c0.1,0.1,0.2,0.2,0.3,0.2c0.1,0.1,0.2,0.2,0.3,0.2c0.2,0.2,0.4,0.3,0.7,0.5c0.1,0.1,0.2,0.2,0.3,0.2c0.1,0.1,0.2,0.2,0.3,0.2
				c0.5,0.4,1.1,0.7,1.6,1.1c0.4,0.2,0.7,0.4,1.1,0.7c0.3,0.2,0.7,0.4,1.1,0.6c0.3,0.2,0.7,0.3,1,0.5c0.3,0.2,0.7,0.3,1,0.5
				c0.5,0.2,1,0.5,1.6,0.7c0.1,0.1,0.2,0.1,0.3,0.1c0.4,0.2,0.8,0.4,1.3,0.5c3.1,1.3,6.2,2.5,9.1,4.1c0.4,0.2,0.8,0.4,1.2,0.6
				c0.2,0.1,0.5,0.3,0.7,0.4c0.1,0.1,0.3,0.2,0.4,0.3c0.1,0.1,0.3,0.2,0.4,0.3c0.5,0.3,0.9,0.6,1.3,1c0.2,0.1,0.4,0.3,0.6,0.5
				c0.1,0.1,0.3,0.2,0.4,0.3c0.2,0.2,0.5,0.4,0.7,0.6c0.7,0.7,1.4,1.4,2.1,2.2c0.1,0.2,0.3,0.4,0.4,0.6c0.6,0.8,1.2,1.8,1.8,2.8
				c0.1,0.2,0.2,0.4,0.3,0.7c0.4,0.8,0.8,1.7,1.1,2.7c0.2,0.6,0.4,1.3,0.6,2c0.3,1,0.5,2.1,0.6,3.3c0.2,1.8,0.4,3.7,0.4,5.9
				c0,0,11.2-25.9,35.7-19.7c24.5,6.2,37.7,22.2,37.7,11.1c0-11.1-13.2-30.8-13.2-30.8s10.2,1.2,24.5,4.9c5.4,1.4,11.5,12,15.7,20.8
				C405.8,469.5,406.2,470.5,406.6,471.4z"/>
		</g>
		<g>
			<path class="st3" d="M198.4,421.3c-0.2,0-0.4,0-0.5,0v0C198.1,421.2,198.3,421.2,198.4,421.3z"/>
			<path class="st3" d="M202.5,444.3c-0.4-1.4-0.8-2.8-1.2-4.2c-0.1-0.4-0.2-0.7-0.3-1.1c-0.1-0.4-0.2-0.9-0.3-1.3
				c0-0.1,0-0.1,0-0.2c0,0.1,0,0.1,0.1,0.2c0.1,0.4,0.2,0.9,0.3,1.3c0.1,0.4,0.2,0.7,0.3,1.1C201.6,441.5,202,442.9,202.5,444.3z"/>
			<path class="st3" d="M211.8,466.1c-0.4-0.6-0.7-1.3-1.1-1.9c-0.4-0.8-0.8-1.6-1.2-2.3c-0.2-0.5-0.5-1-0.7-1.5
				c0.2,0.5,0.5,1,0.7,1.5c0.4,0.8,0.8,1.6,1.2,2.3C211.1,464.9,211.4,465.5,211.8,466.1z"/>
			<path class="st3" d="M294.6,324.9v8c-4.7-1.4-9.4-4.2-14.2-8.7c0,0,0,0,0,0L294.6,324.9z"/>
			<path class="st3" d="M294.6,459.8v60.5l-71.6-37.5h0l0,0c-0.4-0.5-0.8-0.9-1.2-1.4c-0.8-1-1.5-1.9-2.2-2.9
				c-0.4-0.5-0.7-1-1.1-1.5c-0.7-0.9-1.3-1.8-1.9-2.8c0.1-0.2,0.3-0.5,0.4-0.7c0.6-0.9,1.2-1.8,1.8-2.6c0.2-0.3,0.4-0.5,0.6-0.8
				c0.2-0.3,0.4-0.5,0.7-0.8c0.2-0.2,0.4-0.5,0.7-0.8c0.2-0.2,0.5-0.5,0.7-0.7c0.2-0.2,0.5-0.5,0.7-0.7c0.2-0.2,0.5-0.4,0.7-0.6
				c0.2-0.2,0.5-0.4,0.8-0.6c0,0,0,0,0,0c0.2-0.2,0.5-0.4,0.8-0.5c0.3-0.2,0.6-0.4,1-0.6c0.2-0.1,0.4-0.2,0.6-0.3c0,0,0.1,0,0.1,0
				c0.2-0.1,0.5-0.2,0.7-0.3c0.1,0,0.1-0.1,0.2-0.1c0.2-0.1,0.4-0.2,0.6-0.2c0.1,0,0.1-0.1,0.2-0.1c0.2-0.1,0.5-0.2,0.8-0.2
				c0.3-0.1,0.5-0.1,0.8-0.2c0,0,0.1,0,0.1,0c0.3,0,0.6-0.1,0.9-0.1c0.3,0,0.6,0,0.9,0c3.5,0,7.3,1.6,11.4,5.7
				c21.4,21,2-29.6,6.1-41.9c0,0,10.2-3.7,18.4,14.8c0.1,0.3,0.3,0.6,0.4,0.9c0.1,0.1,0.1,0.3,0.2,0.4c0.5,1,1.1,1.9,1.8,2.8
				c0.1,0.2,0.2,0.3,0.3,0.4c0.6,0.7,1.2,1.3,1.8,1.9c0.1,0.1,0.2,0.2,0.3,0.2c0.1,0.1,0.2,0.2,0.3,0.2c0.2,0.2,0.4,0.3,0.7,0.5
				c0.1,0.1,0.2,0.2,0.3,0.2c0.1,0.1,0.2,0.2,0.3,0.2c0.5,0.4,1.1,0.7,1.6,1.1c0.4,0.2,0.7,0.4,1.1,0.7c0.3,0.2,0.7,0.4,1.1,0.6
				c0.3,0.2,0.7,0.3,1,0.5c0.3,0.2,0.7,0.3,1,0.5c0.5,0.2,1,0.5,1.6,0.7c0.1,0.1,0.2,0.1,0.3,0.1c0.4,0.2,0.8,0.4,1.3,0.5
				c3.1,1.3,6.2,2.5,9.1,4.1c0.4,0.2,0.8,0.4,1.2,0.6c0.2,0.1,0.5,0.3,0.7,0.4c0.1,0.1,0.3,0.2,0.4,0.3
				C294.3,459.6,294.5,459.7,294.6,459.8z"/>
		</g>
		<path class="st2" d="M410,479.2l-17.7,9.2l-79.2,41l-8.4,4.4l-8.4-4.4h0l-1.6-0.8L217,488.4h0l0,0l-1.7-0.9c0,0,0,0,0,0l-3.8-2
			c0.3-0.9,0.7-1.9,1.1-2.9c0.1-0.2,0.2-0.5,0.3-0.7c0.2-0.5,0.5-1.1,0.7-1.6c0.1-0.2,0.1-0.3,0.2-0.4c0.1-0.2,0.2-0.5,0.3-0.7
			c0.4-1,0.9-1.9,1.4-2.8c0.2-0.3,0.3-0.6,0.5-0.9c0.2-0.3,0.4-0.6,0.5-0.9c0-0.1,0.1-0.1,0.1-0.2h0c0.1-0.2,0.3-0.5,0.4-0.7
			c0.6-0.9,1.2-1.8,1.8-2.6c0.2-0.3,0.4-0.5,0.6-0.8c0.2-0.3,0.4-0.5,0.7-0.8c0.2-0.2,0.4-0.5,0.7-0.8c0.2-0.2,0.5-0.5,0.7-0.7
			c0.2-0.2,0.5-0.5,0.7-0.7c0.2-0.2,0.5-0.4,0.7-0.6c0.2-0.2,0.5-0.4,0.8-0.6c0,0,0,0,0,0c0.2-0.2,0.5-0.4,0.8-0.5
			c0.3-0.2,0.6-0.4,1-0.6c0.2-0.1,0.4-0.2,0.6-0.3c0,0,0.1,0,0.1,0c0.2-0.1,0.5-0.2,0.7-0.3c0.1,0,0.1-0.1,0.2-0.1
			c0.2-0.1,0.4-0.2,0.6-0.2c0.1,0,0.1-0.1,0.2-0.1c0.2-0.1,0.5-0.2,0.8-0.2c0.3-0.1,0.5-0.1,0.8-0.2c0,0,0.1,0,0.1,0
			c0.3,0,0.6-0.1,0.9-0.1c0.3,0,0.6,0,0.9,0c3.5,0,7.3,1.6,11.4,5.7c21.4,21,2-29.6,6.1-41.9c0,0,10.2-3.7,18.4,14.8
			c0.1,0.3,0.3,0.6,0.4,0.9c0.1,0.1,0.1,0.3,0.2,0.4c0.5,1,1.1,1.9,1.8,2.8c0.1,0.2,0.2,0.3,0.3,0.4c0.6,0.7,1.2,1.3,1.8,1.9
			c0.1,0.1,0.2,0.2,0.3,0.2c0.1,0.1,0.2,0.2,0.3,0.2c0.2,0.2,0.4,0.3,0.7,0.5c0.1,0.1,0.2,0.2,0.3,0.2c0.1,0.1,0.2,0.2,0.3,0.2
			c0.5,0.4,1.1,0.7,1.6,1.1c0.4,0.2,0.7,0.4,1.1,0.7c0.3,0.2,0.7,0.4,1.1,0.6c0.3,0.2,0.7,0.3,1,0.5c0.3,0.2,0.7,0.3,1,0.5
			c0.5,0.2,1,0.5,1.6,0.7c0.1,0.1,0.2,0.1,0.3,0.1c0.4,0.2,0.8,0.4,1.3,0.5c3.1,1.3,6.2,2.5,9.1,4.1c0.4,0.2,0.8,0.4,1.2,0.6
			c0.2,0.1,0.5,0.3,0.7,0.4c0.1,0.1,0.3,0.2,0.4,0.3c0.1,0.1,0.3,0.2,0.4,0.3c0.5,0.3,0.9,0.6,1.3,1c0.2,0.1,0.4,0.3,0.6,0.5
			c0.1,0.1,0.3,0.2,0.4,0.3c0.2,0.2,0.5,0.4,0.7,0.6c0.7,0.7,1.4,1.4,2.1,2.2c0.1,0.2,0.3,0.4,0.4,0.6c0.6,0.8,1.2,1.8,1.8,2.8
			c0.1,0.2,0.2,0.4,0.3,0.7c0.4,0.8,0.8,1.7,1.1,2.7c0.2,0.6,0.4,1.3,0.6,2c0.3,1,0.5,2.1,0.6,3.3c0.2,1.8,0.4,3.7,0.4,5.9
			c0,0,11.2-25.9,35.7-19.7c24.5,6.2,37.7,22.2,37.7,11.1c0-11.1-13.2-30.8-13.2-30.8s10.2,1.2,24.5,4.9c5.4,1.4,11.5,12,15.7,20.8
			c0.5,1,0.9,1.9,1.3,2.8C408.1,474.7,409.3,477.5,410,479.2z"/>
		<path class="st6" d="M287.8,264.4c0,0-4.2,0.3-9.3,0.7c-12.7,0.8-25.3-3.7-34.4-12.6c-1.4-1.4-2.3-2.4-2.1-2.7
			c0.2-0.5,1.7-0.5,4-0.2c-1.9-1.2-2.9-2.2-2.6-2.6c0.8-1.3,11.5,1.6,23.7,6.5C278.5,257.9,287.8,264.4,287.8,264.4z"/>
		<path class="st6" d="M306,158V360c-0.1,0-0.2,0-0.3,0v-26.2c-3.6,0.5-7.3,0.2-11-0.9c-4.7-1.4-9.4-4.2-14.2-8.7l0,0h0l14.2,0.7
			l10.5,0.5l0.5-0.2v-17.3l-4.2-2.7l-4.9-3.2h9.1V158.8c-11.2,3.5-24.4,11.4-39.7,26.3c1.1-1,2.1-2,3.1-3c1.2-1.2,2.5-2.3,3.7-3.4
			c0.4-0.4,0.8-0.7,1.2-1.1c0.4-0.3,0.8-0.7,1.2-1c1.6-1.4,3.2-2.7,4.7-3.9c0.8-0.6,1.5-1.2,2.3-1.7c0.4-0.3,0.8-0.6,1.2-0.9
			c0.8-0.5,1.5-1.1,2.2-1.6c0.7-0.5,1.5-1,2.2-1.5c0,0,0.1,0,0.1-0.1c1.1-0.7,2.1-1.3,3.1-2c0.7-0.4,1.4-0.8,2.1-1.2
			c0.7-0.4,1.4-0.8,2.1-1.1c1-0.5,2.1-1,3.1-1.5c0.7-0.3,1.3-0.6,2-0.9c0.3-0.1,0.7-0.3,1-0.4c1-0.4,1.9-0.8,2.9-1.1
			C304.7,158.5,305.3,158.2,306,158z"/>
		<path class="st6" d="M264,187.1c-0.4,0.4-0.9,0.9-1.3,1.3c0.3-0.3,0.5-0.5,0.8-0.8C263.6,187.4,263.8,187.2,264,187.1z"/>
		<path class="st6" d="M287.8,264.4c0,0-4.2,0.3-9.3,0.7c-12.7,0.8-25.3-3.7-34.4-12.6c-1.4-1.4-2.3-2.4-2.1-2.7
			c0.2-0.5,1.7-0.5,4-0.2c-1.9-1.2-2.9-2.2-2.6-2.6c0.8-1.3,11.5,1.6,23.7,6.5C278.5,257.9,287.8,264.4,287.8,264.4z"/>
		<path class="st6" d="M385.3,205l0,27.1l0,7.3c-1.3,14-3.7,28.7-6.2,40.9c-2.9,14-5.9,24.8-7.7,27.9c-3.2,5.3-8.6,12.9-15.3,20.7
			c-4.3,4.9-9.1,9.9-14.2,14.3c-10.4,9.1-22.1,16.2-33.5,16.8c-0.4,0-0.8,0-1.2,0c-0.3,0-0.6,0-0.9,0c-0.1,0-0.2,0-0.3,0
			c-0.1,0-0.2,0-0.3,0v-26.2c-3.6,0.5-7.3,0.2-11-0.9c-4.7-1.4-9.4-4.2-14.2-8.7l0,0h0l14.2,0.7l10.5,0.5l0.5-0.2v-17.3l-4.2-2.7
			l-4.9-3.2h9.1V158.8c-11.2,3.5-24.4,11.4-39.7,26.3c-0.2,0.2-0.4,0.4-0.6,0.6c1.2-1.2,2.5-2.4,3.7-3.6c1.2-1.2,2.5-2.3,3.7-3.4
			c0.4-0.4,0.8-0.7,1.2-1.1c0.4-0.3,0.8-0.7,1.2-1c1.6-1.4,3.2-2.7,4.7-3.9c0.8-0.6,1.5-1.2,2.3-1.7c0.4-0.3,0.8-0.6,1.2-0.9
			c0.8-0.6,1.5-1.1,2.2-1.6c0.7-0.5,1.5-1,2.2-1.5c0,0,0.1,0,0.1-0.1c1.1-0.7,2.1-1.4,3.1-2c0.7-0.4,1.4-0.8,2.1-1.2
			c0.7-0.4,1.4-0.8,2.1-1.1c1-0.5,2.1-1.1,3.1-1.5c0.7-0.3,1.3-0.6,2-0.9c0.3-0.1,0.7-0.3,1-0.4c1-0.4,1.9-0.8,2.9-1.1
			c0.6-0.2,1.2-0.4,1.9-0.6v0c31.8-10.5,47.2,14.4,47.2,14.4c9.3-2.5,24.7-1.5,30.5,20C384.8,196.5,385.3,200.8,385.3,205z"/>
		<path class="st3" d="M419.1,421.3c-18.1,0-32.5-3.1-43.8-9.5c-20.5-11.6-30.6-34.1-33.4-68.6c-10.4,9.1-22.1,16.2-33.5,16.8
			c-0.4,0-0.8,0-1.2,0c-0.3,0-0.6,0-0.9,0c-0.1,0-0.2,0-0.3,0c-0.1,0-0.2,0-0.3,0v-26.2c-3.6,0.5-7.3,0.2-11-0.9
			c-4.7-1.4-9.4-4.2-14.2-8.7l0,0h0l14.2,0.7l10.5,0.5l0.5-0.2v-17.3l-4.2-2.7l-4.9-3.2h9.1V158.8c-11.2,3.5-24.4,11.4-39.7,26.3
			c-0.2,0.2-0.4,0.4-0.6,0.6c0,0-0.1,0.1-0.1,0.1c-0.4,0.4-0.9,0.8-1.3,1.3c-0.4,0.4-0.9,0.9-1.3,1.3c-0.9,0.9-1.7,1.8-2.6,2.7
			c-0.9,0.9-1.8,1.9-2.6,2.9c-0.9,1-1.8,2-2.7,3c-1.3,1.5-2.7,3.1-4,4.7c-1.4,1.7-2.8,3.4-4.2,5.2c-0.5,0.6-0.9,1.2-1.4,1.8
			c-1,1.2-1.9,2.4-2.9,3.7c-1,1.2-1.9,2.5-2.9,3.8c-0.5,0.6-1,1.3-1.5,2c-1.5,2-3,4-4.5,6.1c-0.7,1-1.4,2-2.2,3.1
			c-0.6,0.9-1.3,1.8-1.9,2.8c-0.7,0.9-1.3,1.9-2,2.9c2.3,31.7,10.8,69.1,14.5,75.3c0.9,1.6,2.1,3.4,3.4,5.3c0.3,0.5,0.7,1,1,1.5
			c0,0,0.1,0.1,0.1,0.1c0.2,0.3,0.4,0.6,0.6,0.8c0.7,1,1.4,1.9,2.1,3c0.5,0.7,1,1.3,1.5,2c0.6,0.8,1.2,1.6,1.9,2.4
			c0.5,0.6,0.9,1.2,1.4,1.8c6.9,8.5,15.7,17.6,25.2,24.4c-0.1,0.5-0.1,1.1-0.2,1.6c-4.5,36.7-18.5,58.4-46.3,66.6
			c-8.7,2.5-18.7,3.8-30.1,3.8c-0.8,0-1.5,0-2.3,0c-0.6,0-1.1,0-1.7-0.1c-0.2,0-0.4,0-0.5,0c0.1,0.8,0.2,1.6,0.3,2.5
			c0,0.2,0,0.4,0.1,0.5c0.1,0.8,0.2,1.6,0.3,2.4c0.1,0.6,0.2,1.2,0.3,1.9c0,0.1,0,0.3,0.1,0.4c0.1,0.5,0.2,1,0.2,1.4
			c0,0.3,0.1,0.6,0.2,0.9c0.1,0.4,0.1,0.8,0.2,1.2c0.1,0.3,0.1,0.7,0.2,1c0.2,1,0.4,1.9,0.6,2.9c0,0.1,0,0.2,0.1,0.3
			c0,0.2,0.1,0.4,0.2,0.6c0,0.1,0.1,0.3,0.1,0.4c0,0.1,0,0.1,0.1,0.2c0.1,0.4,0.2,0.9,0.3,1.3c0.1,0.4,0.2,0.7,0.3,1.1
			c0.4,1.4,0.8,2.8,1.2,4.2v0c0.1,0.4,0.2,0.8,0.4,1.1c0,0.1,0,0.1,0,0.1c0.2,0.6,0.4,1.2,0.6,1.9c0.2,0.6,0.4,1.3,0.7,1.9
			c0.1,0.3,0.2,0.7,0.4,1c0.2,0.5,0.4,1.1,0.6,1.6c0.1,0.2,0.2,0.4,0.2,0.6c0.3,0.7,0.6,1.5,0.9,2.2c0.3,0.6,0.5,1.3,0.8,1.9
			c0.5,1.1,1,2.2,1.5,3.2c0.1,0.2,0.2,0.3,0.2,0.5c0.2,0.5,0.5,1,0.7,1.5c0.4,0.8,0.8,1.6,1.2,2.3c0.3,0.7,0.7,1.3,1,1.9
			c0.3,0.6,0.7,1.3,1.1,1.9c0.2,0.4,0.5,0.8,0.7,1.1c0.6,1.1,1.3,2.2,2,3.2c0.3,0.5,0.6,0.9,0.9,1.4v0c0.1,0.1,0.2,0.3,0.3,0.4
			c0.1-0.2,0.3-0.5,0.4-0.7c0.6-0.9,1.2-1.8,1.8-2.6c0.2-0.3,0.4-0.5,0.6-0.8c0.2-0.3,0.4-0.5,0.7-0.8c0.2-0.2,0.4-0.5,0.7-0.8
			c0.2-0.2,0.5-0.5,0.7-0.7c0.2-0.2,0.5-0.5,0.7-0.7c0.2-0.2,0.5-0.4,0.7-0.6c0.2-0.2,0.5-0.4,0.8-0.6c0,0,0,0,0,0
			c0.2-0.2,0.5-0.4,0.8-0.5c0.3-0.2,0.6-0.4,1-0.6c0.2-0.1,0.4-0.2,0.6-0.3c0,0,0.1,0,0.1,0c0.2-0.1,0.5-0.2,0.7-0.3
			c0.1,0,0.1-0.1,0.2-0.1c0.2-0.1,0.4-0.2,0.6-0.2c0.1,0,0.1-0.1,0.2-0.1c0.2-0.1,0.5-0.2,0.8-0.2c0.3-0.1,0.5-0.1,0.8-0.2
			c0,0,0.1,0,0.1,0c0.3,0,0.6-0.1,0.9-0.1c0.3,0,0.6,0,0.9,0c3.5,0,7.3,1.6,11.4,5.7c21.4,21,2-29.6,6.1-41.9
			c0,0,10.2-3.7,18.4,14.8c0.1,0.3,0.3,0.6,0.4,0.9c0.1,0.1,0.1,0.3,0.2,0.4c0.5,1,1.1,1.9,1.8,2.8c0.1,0.2,0.2,0.3,0.3,0.4
			c0.6,0.7,1.2,1.3,1.8,1.9c0.1,0.1,0.2,0.2,0.3,0.2c0.1,0.1,0.2,0.2,0.3,0.2c0.2,0.2,0.4,0.3,0.7,0.5c0.1,0.1,0.2,0.2,0.3,0.2
			c0.1,0.1,0.2,0.2,0.3,0.2c0.5,0.4,1.1,0.7,1.6,1.1c0.4,0.2,0.7,0.4,1.1,0.7c0.3,0.2,0.7,0.4,1.1,0.6c0.3,0.2,0.7,0.3,1,0.5
			c0.3,0.2,0.7,0.3,1,0.5c0.5,0.2,1,0.5,1.6,0.7c0.1,0.1,0.2,0.1,0.3,0.1c0.4,0.2,0.8,0.4,1.3,0.5c3.1,1.3,6.2,2.5,9.1,4.1
			c0.4,0.2,0.8,0.4,1.2,0.6c0.2,0.1,0.5,0.3,0.7,0.4c0.1,0.1,0.3,0.2,0.4,0.3c0.1,0.1,0.3,0.2,0.4,0.3c0.5,0.3,0.9,0.6,1.3,1
			c0.2,0.1,0.4,0.3,0.6,0.5c0.1,0.1,0.3,0.2,0.4,0.3c0.2,0.2,0.5,0.4,0.7,0.6c0.7,0.7,1.4,1.4,2.1,2.2c0.1,0.2,0.3,0.4,0.4,0.6
			c0.6,0.8,1.2,1.8,1.8,2.8c0.1,0.2,0.2,0.4,0.3,0.7c0.4,0.8,0.8,1.7,1.1,2.7c0.2,0.6,0.4,1.3,0.6,2c0.3,1,0.5,2.1,0.6,3.3
			c0.2,1.8,0.4,3.7,0.4,5.9c0,0,11.2-25.9,35.7-19.7c24.5,6.2,37.7,22.2,37.7,11.1c0-11.1-13.2-30.8-13.2-30.8s10.2,1.2,24.5,4.9
			c5.4,1.4,11.5,12,15.7,20.8c0.5,1,0.9,1.9,1.3,2.8c1.8-2.8,3.4-5.7,4.9-8.6c6.5-12.6,10.7-26.7,12.1-41.5
			C422.1,421.3,420.6,421.3,419.1,421.3z M278.5,265.1c-12.7,0.8-25.3-3.7-34.4-12.6c-1.4-1.4-2.3-2.4-2.1-2.7
			c0.2-0.5,1.7-0.5,4-0.2c-1.9-1.2-2.9-2.2-2.6-2.6c0.8-1.3,11.5,1.6,23.7,6.5c11.4,4.5,20.7,11,20.7,11
			C287.8,264.5,283.6,264.7,278.5,265.1z"/>
		<path class="st3" d="M287.8,264.4c0,0-4.2,0.3-9.3,0.7c-12.7,0.8-25.3-3.7-34.4-12.6c-1.4-1.4-2.3-2.4-2.1-2.7
			c0.2-0.5,1.7-0.5,4-0.2c-1.9-1.2-2.9-2.2-2.6-2.6c0.8-1.3,11.5,1.6,23.7,6.5C278.5,257.9,287.8,264.4,287.8,264.4z"/>
		<polygon class="st3" points="305.6,302 305.6,307.9 301.4,305.2 296.6,302 		"/>
		<path class="st3" d="M279,349.4c-0.1,0.5-0.1,1.1-0.2,1.6c-16.9-11.8-31.7-31.2-38.1-41.8c-3.7-6.2-12.2-43.5-14.5-75.3
			c13.5-19.9,25.9-35,37.1-46.3c0.2-0.2,0.3-0.3,0.5-0.5c-0.4,0.4-0.9,0.9-1.3,1.3c-0.9,0.9-1.7,1.8-2.6,2.7
			c-0.9,0.9-1.8,1.9-2.6,2.9c-0.9,1-1.8,2-2.7,3c-1.3,1.5-2.7,3.1-4,4.7c-1.4,1.7-2.8,3.4-4.2,5.2c-0.5,0.6-0.9,1.2-1.4,1.8
			c-1,1.2-1.9,2.4-2.9,3.7c-1,1.2-1.9,2.5-2.9,3.8c-0.5,0.6-1,1.3-1.5,2c-1.5,2-3,4-4.5,6.1c-0.7,1-1.4,2-2.2,3.1
			c-0.6,0.9-1.3,1.8-1.9,2.8c-0.7,0.9-1.3,1.9-2,2.9c2.3,31.7,10.8,69.1,14.5,75.3c0.9,1.6,2.1,3.4,3.4,5.3c0.3,0.5,0.7,1,1,1.5
			c0,0,0.1,0.1,0.1,0.1c0.2,0.3,0.4,0.6,0.6,0.8c0.7,1,1.4,1.9,2.1,3c0.5,0.7,1,1.3,1.5,2c0.6,0.8,1.2,1.6,1.9,2.4
			c0.5,0.6,0.9,1.2,1.4,1.8C260.8,333.5,269.6,342.6,279,349.4z"/>
		<path class="st3" d="M305.6,325.3v8.5c-3.6,0.5-7.3,0.2-11-0.9c-4.7-1.4-9.4-4.2-14.2-8.7l0,0h0l14.2,0.7l10.5,0.5L305.6,325.3z"
			/>
		<polygon class="st7" points="316.1,302 311.2,305.2 306.3,308.4 306,308.1 305.6,307.9 301.4,305.2 296.6,302 		"/>
		<path class="st8" d="M332.2,316.8c-7.9,9.2-16.8,15.6-26.3,17c-0.1,0-0.2,0-0.3,0c-3.6,0.5-7.3,0.2-11-0.9
			c-4.7-1.4-9.4-4.2-14.2-8.7l0,0h0l14.2,0.7l10.5,0.5l0.5-0.2l0.3-0.1L332.2,316.8z"/>
		<path class="st9" d="M287.8,264.4c0,0-4.2,0.3-9.3,0.7c-12.7,0.8-25.3-3.7-34.4-12.6c-1.4-1.4-2.3-2.4-2.1-2.7
			c0.2-0.5,1.7-0.5,4-0.2c-1.9-1.2-2.9-2.2-2.6-2.6c0.8-1.3,11.5,1.6,23.7,6.5C278.5,257.9,287.8,264.4,287.8,264.4z"/>
		<g>
			<path class="st10" d="M238.7,231.1c-0.2-2.9,0.3-5.8,1.3-8.6c1-2.8,2.8-5.6,5.7-7.3c1.4-0.9,3.1-1.5,4.7-1.7
				c1.6-0.2,3.3-0.2,4.9,0.1c3.2,0.5,6,1.8,8.6,3.2c5.2,3,9.4,6.9,13.5,10.6c2.1,1.9,4.1,3.7,6.3,5.3c2.2,1.6,4.5,2.9,7.4,3.2
				c-1.4,0.4-2.9,0.5-4.4,0.2c-0.8-0.1-1.4-0.3-2.2-0.5c-0.7-0.2-1.4-0.5-2.1-0.8c-2.7-1.2-5.2-2.7-7.5-4.4c-4.7-3.2-9-6.8-13.6-9.4
				c-2.3-1.3-4.7-2.4-7-2.9c-2.4-0.6-4.7-0.6-6.8,0.4c-2.1,0.9-3.9,2.8-5.4,5C240.7,225.8,239.6,228.4,238.7,231.1z"/>
		</g>
		<path class="st9" d="M332.2,265.1c12.7,0.8,25.3-3.7,34.4-12.6c1.4-1.4,2.3-2.4,2.1-2.7c-0.2-0.5-1.7-0.5-4-0.2
			c1.9-1.2,2.9-2.2,2.6-2.6c-0.8-1.3-11.5,1.6-23.7,6.5c-11.4,4.5-20.7,11-20.7,11C322.8,264.5,327,264.7,332.2,265.1z"/>
		<g>
			<path class="st10" d="M372,231.1c-0.9-2.7-2-5.3-3.5-7.5c-1.5-2.2-3.3-4.1-5.4-5c-2.1-0.9-4.4-0.9-6.8-0.4
				c-2.4,0.5-4.8,1.6-7,2.9c-4.6,2.6-8.9,6.1-13.6,9.4c-2.4,1.6-4.8,3.2-7.5,4.4c-0.7,0.3-1.4,0.5-2.1,0.8c-0.7,0.2-1.4,0.4-2.2,0.5
				c-1.5,0.3-3,0.2-4.4-0.2c2.9-0.3,5.2-1.6,7.4-3.2c2.2-1.6,4.2-3.4,6.3-5.3c4.1-3.7,8.3-7.7,13.5-10.6c2.6-1.4,5.4-2.7,8.6-3.2
				c1.6-0.3,3.2-0.3,4.9-0.1c1.7,0.2,3.3,0.8,4.7,1.7c2.9,1.8,4.7,4.6,5.7,7.3C371.7,225.3,372.1,228.2,372,231.1z"/>
		</g>
	</g>
</g>
</svg>
