<?xml version="1.0" encoding="utf-8"?>
<!-- Generator: Adobe Illustrator 22.0.0, SVG Export Plug-In . SVG Version: 6.00 Build 0)  -->
<svg version="1.1" id="Layer_1" xmlns="http://www.w3.org/2000/svg" xmlns:xlink="http://www.w3.org/1999/xlink" x="0px" y="0px"
	 viewBox="0 0 612.8 612.8" style="enable-background:new 0 0 612.8 612.8;" xml:space="preserve">
<style type="text/css">
	.st0{fill:#E9BEB1;}
	.st1{fill:#997099;}
	.st2{fill:#662D8F;}
	.st3{fill:#D3CDD0;}
	.st4{fill:#FEF3F7;}
	.st5{fill:#EFE6E9;}
	.st6{fill:#1A2A30;}
	.st7{fill:#E8CB79;}
	.st8{fill:#1A4E27;}
	.st9{fill:#E8CB79;stroke:#AA334D;stroke-width:2;stroke-miterlimit:10;}
</style>
<g>
	<path class="st0" d="M240.1,261v0.2c-0.3,0-0.6-0.1-0.9-0.1C239.4,261,239.8,261,240.1,261z"/>
	<path class="st0" d="M239.1,261.1c-0.3,0-0.6,0.1-1,0.1V261C238.5,261,238.8,261,239.1,261.1z"/>
	<circle class="st1" cx="306.4" cy="306" r="250.1"/>
	<path d="M306.7,577.7c0,0.2,0.1,0.4,0.1,0.6l-0.7-0.9L306.7,577.7z"/>
	<polygon class="st2" points="448.7,481.4 306.4,569.7 164.1,481.4 164.1,352.7 448.7,352.7 	"/>
	<path class="st3" d="M365.8,253.1v98l-1.3,2.4c-29.6,55.7-89.1,54.5-117.6-2.4l0,0v-98H365.8z"/>
	<polygon class="st4" points="393.8,221.8 342,341.4 271.5,341.4 222.5,221.8 215.5,91.4 397.9,91.4 	"/>
	<polygon class="st5" points="307.7,91.4 307.7,341.4 271.7,341.4 222.7,221.8 215.7,91.4 	"/>
	<path class="st6" d="M295.3,195.3c-3.1,2.6-14.8,9.1-23.1,9.1c-20.7,0-28.1-24.7-28.1-24.7L295.3,195.3z"/>
	<path class="st7" d="M284.9,195.8c-2,1.6-9.3,5.7-14.5,5.7c-13,0-17.7-15.5-17.7-15.5L284.9,195.8z"/>
	<path class="st6" d="M320.1,195.3c3.1,2.6,14.8,9.1,23.1,9.1c20.7,0,28.1-24.7,28.1-24.7L320.1,195.3z"/>
	<path class="st7" d="M330.5,195.8c2,1.6,9.3,5.7,14.5,5.7c13,0,17.7-15.5,17.7-15.5L330.5,195.8z"/>
	<polygon class="st8" points="306.7,137.8 215.5,90.9 306.7,90.9 393.8,90.9 	"/>
	<polygon class="st4" points="307.7,195.2 314.5,222.9 321.3,250.5 307.7,250.5 294.1,250.5 300.9,222.9 	"/>
	<path class="st8" d="M271.6,119.2c0,0-58.4-35.7-50.7,69.6L183.7,103c0,0,15.8,13.3,31.8-12.2h28.2L271.6,119.2z"/>
	<path class="st8" d="M339.6,119.9c0,0,62.9-36.5,55.2,69.9l34.3-86.6c0,0-15.2,13.5-31.2-12.3h-28.8L339.6,119.9z"/>
	<path class="st8" d="M269.8,59.6c0,0-33.1,50.9,27.2,65.5l35.2-33.7C332.2,91.4,267.9,86.6,269.8,59.6z"/>
	<path class="st9" d="M248.3,242.1L248.3,242.1c35.1,26.8,83.8,26.8,118.8,0l0,0c0,0-11,32.6-36,58.8c-14.1,14.9-31.9,14.1-46.9,0
		C260,278,248.3,242.1,248.3,242.1z"/>
</g>
</svg>
