<?xml version="1.0" encoding="utf-8"?>
<!-- Generator: Adobe Illustrator 21.1.0, SVG Export Plug-In . SVG Version: 6.00 Build 0)  -->
<svg version="1.1" id="Layer_1" xmlns="http://www.w3.org/2000/svg" xmlns:xlink="http://www.w3.org/1999/xlink" x="0px" y="0px"
	 viewBox="0 0 612.8 612.8" style="enable-background:new 0 0 612.8 612.8;" xml:space="preserve">
<style type="text/css">
	.st0{fill:#6F8E77;}
	.st1{fill:#E9BEB1;}
	.st2{fill:#0B6F48;}
	.st3{fill:#FFD5C6;}
	.st4{fill:#603813;}
	.st5{fill:#8E736E;}
	.st6{fill:#662D8F;}
	.st7{fill:#DEFFEC;}
	.st8{fill:#EFE6E9;}
</style>
<circle class="st0" cx="306.4" cy="306.4" r="250.1"/>
<g>
	<g>
		<path class="st1" d="M239.2,235.5c0,16.5,0,29.8,0,29.8c-7.7,0-18-10.4-22.9-29.8c-4-16-4.8-30.6,2.9-30.6
			C226.9,204.8,239.2,219,239.2,235.5z"/>
		<path class="st1" d="M376.2,235.5c0,16.5,0,29.8,0,29.8c7.7,0,18-10.4,22.9-29.8c4-16,4.8-30.6-2.9-30.6S376.2,219,376.2,235.5z"
			/>
		<path class="st1" d="M240,262.8v0.2c-0.3,0-0.6-0.1-0.9-0.1C239.4,262.8,239.7,262.8,240,262.8z"/>
		<path class="st1" d="M239.1,262.9c-0.3,0-0.6,0.1-1,0.1v-0.2C238.5,262.8,238.8,262.8,239.1,262.9z"/>
		<path d="M306.7,579.5c0,0.2,0.1,0.4,0.1,0.6l-0.7-0.9L306.7,579.5z"/>
		<polygon class="st2" points="448.7,483.2 306.4,571.5 164.1,483.2 164.1,354.5 448.7,354.5 		"/>
		<path d="M365.8,254.9v98l-1.3,2.4c-29.6,55.7-89.1,54.5-117.6-2.4l0,0v-98H365.8z"/>
		<path class="st1" d="M375.3,292.8L342,343.2h-70.5l-33.3-51l-12.3-108.3c-5.5-48.3,32.3-90.6,80.9-90.6l0,0
			c48.6,0,86.4,42.3,80.9,90.6L375.3,292.8z"/>
		<path class="st1" d="M307.7,93.2v250h-36l-33.5-51l-16.4-145.3c-3.2-28.6,17.8-38.2,47.9-53.6h38V93.2z"/>
		<polygon class="st3" points="307.7,207 314.5,234.6 321.3,262.3 307.7,272.8 294.1,262.3 300.9,234.6 		"/>
		<path class="st4" d="M307.4,133.5c0,0-77.5-31.1-76.9,91.3L218.2,161c-6-23.8,2.4-49,21.8-64c0.9-0.7,1.7-1.2,2.3-1.7
			c16.1-10.1,35.9-12,53.9-6l11.5,3.9L307.4,133.5z"/>
		<path class="st4" d="M307.4,133.5c0,0,74.1-31.3,78.7,63.4l9.1-35.8c6-23.8-2.4-49-21.8-64c-0.9-0.7-1.7-1.2-2.3-1.7
			c-16.1-10.1-35.9-12-53.9-6l-11.5,3.9L307.4,133.5z"/>
		<g>
			<path class="st5" d="M268.8,279.2c1.9,2.2,4.2,4,6.5,5.6c1.1,0.8,2.4,1.5,3.6,2.2c1.3,0.7,2.5,1.2,3.8,1.9
				c5.2,2.3,10.7,3.7,16.3,4.5c5.6,1,11.3,1.1,17.1,1.3c2.9-0.1,5.7-0.1,8.6-0.3c2.9-0.2,5.8-0.4,8.7-0.5c-2.8,0.7-5.7,1.4-8.5,2
				c-2.9,0.5-5.8,0.8-8.7,1.1c-1.5,0.1-2.9,0.1-4.4,0.2c-1.5,0-2.9,0.1-4.4,0l-4.4-0.3l-1.1-0.1l-1.1-0.2l-2.2-0.3
				c-1.5-0.2-2.9-0.4-4.4-0.8c-1.4-0.4-2.9-0.7-4.3-1.1l-4.2-1.5c-1.4-0.6-2.7-1.2-4-1.9c-1.3-0.8-2.6-1.5-3.8-2.3
				c-1.2-0.9-2.4-1.7-3.5-2.7C272.2,284,270.2,281.8,268.8,279.2z"/>
		</g>
	</g>
	<path class="st6" d="M349.9,182.2c-12.9,7.7-40.7,26.2-40.7,26.2s-27.8-18.5-40.7-26.2c-8.6-5.2-40.7-5.6-33.7,19.5
		c7,25,21.2,41,36.7,41.7s12.7-6.3,37.7-7.6c25,1.4,22.2,8.3,37.7,7.6s29.7-16.7,36.7-41.7C390.6,176.6,358.5,177,349.9,182.2z"/>
	<path class="st7" d="M286.1,212.7c-2,1.6-9.3,5.7-14.5,5.7c-13,0-17.7-15.5-17.7-15.5L286.1,212.7z"/>
	<path class="st7" d="M331.7,212.7c2,1.6,9.3,5.7,14.5,5.7c13,0,17.7-15.5,17.7-15.5L331.7,212.7z"/>
	<path class="st2" d="M386.7,120.6h-160v-43c0-24.8,20.1-45,45-45h70c24.8,0,45,20.1,45,45V120.6z"/>
	<polyline class="st8" points="226.7,120.6 226.7,91.1 386.7,91.1 386.7,120.6 	"/>
	<path class="st2" d="M419.8,128.2l-33.3,4.5c-52.1,7-104.9,7-157.1,0.1l-33.8-4.5V111c0-2.5,2.3-4.4,4.8-4l0,0
		c71.1,11.8,143.6,11.8,214.6,0l0,0c2.5-0.4,4.8,1.5,4.8,4V128.2z"/>
</g>
</svg>
