<?xml version="1.0" encoding="utf-8"?>
<!-- Generator: Adobe Illustrator 21.1.0, SVG Export Plug-In . SVG Version: 6.00 Build 0)  -->
<svg version="1.1" id="Layer_1" xmlns="http://www.w3.org/2000/svg" xmlns:xlink="http://www.w3.org/1999/xlink" x="0px" y="0px"
	 viewBox="0 0 512 512" style="enable-background:new 0 0 512 512;" xml:space="preserve">
<style type="text/css">
	.st0{fill:#FFFFFF;}
</style>
<g>
	<g>
		<path class="st0" d="M256.4,25.8c-127,0-230.6,103.2-230.6,230.6c0,127.4,103.2,230.2,230.6,230.2s230.2-103.2,230.2-230.2
			S383.4,25.8,256.4,25.8z M256.4,454.4c-109.1,0-198.1-88.9-198.1-198.1S147.2,58.3,256.4,58.3s198.1,88.9,198.1,198.1
			S365.5,454.4,256.4,454.4z"/>
		<path class="st0" d="M234.6,141.3c-3.2-3.2-7.1-4.8-11.5-4.8c-4,0-8.3,1.6-11.5,4.8c-6.4,6.4-6.4,16.7,0,23l93.3,93.3l-93.3,93.3
			c-6.4,6.4-6.4,16.7,0,23c6.4,6.4,16.7,6.4,23,0l104.8-104.8c3.2-3.2,4.8-7.1,4.8-11.5c0-4.4-1.6-8.3-4.8-11.5L234.6,141.3z"/>
	</g>
</g>
</svg>
