<?xml version="1.0" encoding="utf-8"?>
<!-- Generator: Adobe Illustrator 22.0.0, SVG Export Plug-In . SVG Version: 6.00 Build 0)  -->
<svg version="1.1" id="Layer_1" xmlns="http://www.w3.org/2000/svg" xmlns:xlink="http://www.w3.org/1999/xlink" x="0px" y="0px"
	 viewBox="0 0 612.8 612.8" style="enable-background:new 0 0 612.8 612.8;" xml:space="preserve">
<style type="text/css">
	.st0{fill:#628280;}
	.st1{fill:#E9BEB1;}
	.st2{fill:#9DB2B2;}
	.st3{fill:#1A2A30;}
	.st4{fill:#AA334D;}
	.st5{fill:#EFE6E9;}
	.st6{fill:#FEF3F7;}
	.st7{fill:#8E736E;}
	.st8{fill:#231F20;}
</style>
<g>
	<circle class="st0" cx="306.4" cy="306.1" r="250.1"/>
	<g>
		<path class="st1" d="M239.2,236.6c0,16.5,0,29.8,0,29.8c-7.7,0-18-10.4-22.9-29.8c-4-16-4.8-30.6,2.9-30.6
			C226.9,206,239.2,220.1,239.2,236.6z"/>
		<path class="st2" d="M376.2,236.6c0,16.5,0,29.8,0,29.8c7.7,0,18-10.4,22.9-29.8c4-16,4.8-30.6-2.9-30.6S376.2,220.1,376.2,236.6z
			"/>
		<path class="st1" d="M240.1,263.9v0.2c-0.3,0-0.6-0.1-0.9-0.1C239.4,263.9,239.8,263.9,240.1,263.9z"/>
		<path class="st1" d="M239.1,264c-0.3,0-0.6,0.1-1,0.1v-0.2C238.5,263.9,238.8,263.9,239.1,264z"/>
		<path d="M306.7,580.6c0,0.2,0.1,0.4,0.1,0.6l-0.7-0.9L306.7,580.6z"/>
		<polygon points="448.7,484.3 306.4,572.6 164.1,484.3 164.1,355.6 448.7,355.6 		"/>
		<path class="st1" d="M365.8,256v98l-1.3,2.4c-29.6,55.6-89,54.4-117.5-2.4l0,0v-98H365.8z"/>
		<path class="st2" d="M375.3,293.9L342,344.3h-70.5l-33.3-51L225.8,185c-5.5-48.3,32.3-90.6,80.9-90.6l0,0
			c48.6,0,86.4,42.3,80.9,90.6L375.3,293.9z"/>
		<path class="st1" d="M307.7,94.3v250h-36l-33.5-51L221.8,148c-3.2-28.6,17.8-38.2,47.9-53.6L307.7,94.3L307.7,94.3z"/>
		<path class="st3" d="M284.9,215.7c-2,1.6-9.3,5.7-14.5,5.7c-13,0-17.7-15.5-17.7-15.5L284.9,215.7z"/>
		<path class="st4" d="M330.5,215.7c2,1.6,9.3,5.7,14.5,5.7c13,0,17.7-15.5,17.7-15.5L330.5,215.7z"/>
		<polygon class="st1" points="307.7,198 314.5,225.7 321.3,253.4 307.7,263.9 294.1,253.4 300.9,225.7 		"/>
		<path class="st3" d="M307.7,141.4c0,0-77.8-37.8-77.1,84.6l-12.3-63.8c-6-23.8,2.4-49,21.8-64c0.9-0.7,1.7-1.2,2.3-1.7
			c16.1-10.1,35.9-12,53.9-6l11.5,3.9L307.7,141.4z"/>
		<path class="st5" d="M307.7,141.4c0,0,73.9-38,78.4,56.7l9.1-35.8c6-23.8-2.4-49-21.8-64c-0.9-0.7-1.7-1.2-2.3-1.7
			c-16.1-10.1-35.9-12-53.9-6l-11.5,3.9L307.7,141.4z"/>
		<path class="st6" d="M307.7,293.9c37.6-22.9,37.6,8.5,37.6,8.5"/>
		<g>
			<path class="st7" d="M268.8,280.3c2.9,2.2,5.9,4.1,8.9,5.9s6.2,3.4,9.4,4.6c1.6,0.6,3.3,1.2,4.9,1.6c1.7,0.5,3.4,0.8,5.1,1.1
				c3.4,0.5,7,0.6,10.6,0.3c-3.3,1.4-7.1,2.1-10.8,2c-1.9,0-3.7-0.3-5.5-0.7c-1.8-0.4-3.6-0.9-5.3-1.6c-3.5-1.4-6.7-3.2-9.6-5.5
				C273.5,285.9,270.8,283.3,268.8,280.3z"/>
		</g>
		<g>
			<path class="st8" d="M242.6,192.3c-0.3-1.5-0.4-3-0.3-4.5c0.1-1.5,0.3-3,0.8-4.6c0.5-1.5,1.1-3,2.1-4.5c0.9-1.4,2.2-2.8,3.8-3.8
				s3.4-1.8,5.3-2.1c1.8-0.3,3.7-0.3,5.4,0c3.5,0.5,6.5,1.8,9.2,3.3c1.3,0.8,2.6,1.6,3.9,2.5c1.2,0.9,2.4,1.8,3.5,2.8
				c2.2,1.9,4.2,3.9,6.2,5.9c1.9,2,3.8,3.9,5.8,5.7s4,3.3,6.9,4.1c-1.3,0.6-3,0.9-4.5,0.7c-0.8,0-1.5-0.2-2.3-0.3
				c-0.7-0.2-1.5-0.4-2.2-0.6c-2.9-1-5.5-2.5-8-4c-4.9-3.1-9.2-6.4-13.6-8.9l-1.6-0.9c-0.5-0.3-1.1-0.5-1.6-0.8
				c-0.5-0.2-1.1-0.5-1.6-0.7c-0.5-0.1-1.1-0.4-1.6-0.5c-2.1-0.6-3.9-0.7-5.7-0.1c-1.8,0.6-3.7,2-5.3,4
				C245.3,187.2,243.9,189.6,242.6,192.3z"/>
		</g>
		<g>
			<path class="st8" d="M372.9,192.3c-1.3-2.6-2.7-5.1-4.4-7.1c-1.6-2-3.5-3.5-5.3-4c-1.8-0.6-3.6-0.5-5.7,0.1
				c-0.5,0.1-1,0.3-1.6,0.5c-0.5,0.2-1.1,0.4-1.6,0.7s-1.1,0.5-1.6,0.8l-1.6,0.9c-4.3,2.4-8.6,5.8-13.6,8.9c-2.5,1.5-5.1,3-8,4
				c-0.7,0.2-1.5,0.4-2.2,0.6c-0.8,0.1-1.5,0.3-2.3,0.3c-1.6,0.2-3.2-0.2-4.5-0.7c2.9-0.8,4.9-2.3,6.9-4.1s3.9-3.7,5.8-5.7
				s4-3.9,6.2-5.9c1.1-1,2.3-1.9,3.5-2.8c1.2-0.9,2.6-1.7,3.9-2.5c2.7-1.5,5.7-2.8,9.2-3.3c1.7-0.3,3.6-0.3,5.4,0
				c1.9,0.3,3.7,1,5.3,2.1c1.6,1,2.9,2.4,3.8,3.8c1,1.4,1.6,2.9,2.1,4.5c0.4,1.5,0.7,3,0.8,4.6C373.3,189.3,373.2,190.8,372.9,192.3
				z"/>
		</g>
		<path class="st5" d="M335.6,87.1c0,0,26.7-1,30.3-16.1c0,0,13.3,20.4-3.2,28c0,0,29.1-18.4,43.3,0c0,0-17.7-2.9-21.8,9.9
			c0,0,24.5,45,37.9,33.8c0,0-13.3,27.2-24.9,12.9c0,0,10.7,56.9,24.9,50.3c0,0-21.9,29.9-35.9-7.9c0,0,6.4-51.9,2.1-60.2
			C383.9,129.5,344.4,83.6,335.6,87.1z"/>
	</g>
</g>
</svg>
